<svg width="451" height="729" viewBox="0 0 451 729" fill="none" xmlns="http://www.w3.org/2000/svg">
<g clip-path="url(#clip0_4557_44500)">
<rect width="451" height="729" fill="url(#paint0_linear_4557_44500)"/>
<g opacity="0.27">
<g clip-path="url(#clip1_4557_44500)">
<path d="M133.264 531.082C123.31 520.443 97.1723 515.602 77.0888 515.602C70.8972 515.602 65.1758 516.022 60.0227 516.834C41.1344 519.849 25.0089 522.545 10.7839 524.936C-27.3062 531.328 -50.2895 535.198 -69.3933 535.198C-85.3034 535.198 -98.9406 532.574 -118.025 525.835C-137.952 518.791 -152.588 512.095 -164.325 506.703C-182.762 498.253 -194.93 492.688 -211.584 492.688C-217.031 492.688 -222.91 493.311 -229.493 494.586V495.63C-222.89 494.34 -217.012 493.717 -211.584 493.717C-195.302 493.717 -183.272 499.239 -165.05 507.587C-153.274 512.979 -138.618 519.704 -118.613 526.762C-99.3128 533.574 -85.5189 536.227 -69.3933 536.227C-50.1328 536.227 -27.0906 532.357 11.0778 525.951C25.3028 523.559 41.4088 520.863 60.297 517.849C65.3326 517.052 70.9756 516.646 77.0692 516.646C96.8196 516.646 122.468 521.356 132.127 531.69C136.379 536.256 137.085 541.43 134.204 547.097C128.444 558.402 101.502 568.374 77.7158 577.186C63.3536 582.506 49.7753 587.535 42.7999 592.202C22.4029 605.84 27.3013 624.335 35.5699 644.264H37.0002C28.7904 624.537 23.8333 606.261 43.7012 592.956C50.5394 588.375 64.0394 583.39 78.3232 578.099C102.325 569.215 129.521 559.127 135.478 547.46C138.534 541.474 137.79 535.966 133.264 531.125V531.082Z" fill="white"/>
<path d="M119.92 598.957C117.354 597.043 114.003 596.072 109.967 596.072C97.662 596.072 82.2417 605.087 77.1082 609.189C58.1807 624.335 56.0059 632.814 59.7874 644.221H60.8063C57.0443 632.959 59.1605 624.611 77.8332 609.682C82.8884 605.638 97.995 596.797 109.986 596.797C113.748 596.797 116.864 597.696 119.235 599.464C123.33 602.493 125.367 608.131 125.309 616.204C125.25 626.002 122.977 635.061 120.077 644.221H121.076C123.957 635.061 126.21 626.016 126.288 616.204C126.347 607.943 124.192 602.131 119.92 598.957Z" fill="white"/>
<path d="M29.5936 121.126C25.7925 110.009 -4.93037 107.023 -40.5124 103.588C-49.31 102.733 -58.4014 101.864 -67.2186 100.82C-106.23 96.2691 -141.929 81.7898 -176.453 67.7743C-193.735 60.7593 -211.408 53.5993 -229.493 47.7148V48.8164C-211.663 54.6574 -194.205 61.7303 -177.119 68.6729C-142.497 82.7174 -106.68 97.2546 -67.4341 101.835C-58.5778 102.864 -49.4863 103.748 -40.6888 104.603C-7.06607 107.864 24.6756 110.937 28.2613 121.387C31.0436 129.532 16.701 141.896 -15.5893 159.172C-60.9094 183.42 -98.9211 194.711 -135.248 194.711C-155.899 194.711 -176.355 190.914 -196.086 183.449C-208.371 178.797 -219.167 173.144 -229.474 167.434V168.695C-219.363 174.275 -208.743 179.782 -196.693 184.348C-176.767 191.899 -156.095 195.725 -135.228 195.725C-98.6076 195.725 -60.3216 184.377 -14.7664 159.998C18.5036 142.2 32.5915 129.866 29.6133 121.14L29.5936 121.126Z" fill="white"/>
<path d="M390.41 601.29C389.666 596.391 385.492 592.129 378.008 588.651C364.508 582.361 336.254 579.549 314.23 579.549C309.939 579.549 306.001 579.65 302.533 579.868C281.039 581.187 258.663 584.317 234.131 589.463C230.624 590.202 227.117 590.984 223.747 591.825C182.816 601.884 159.147 617.783 147.782 644.235H148.821C160.146 618.16 183.58 602.449 224.041 592.506C227.411 591.68 230.879 590.897 234.386 590.158C258.878 585.042 281.176 581.911 302.611 580.592C306.06 580.375 309.959 580.274 314.23 580.274C336.097 580.274 364.135 583.056 377.479 589.274C384.689 592.637 388.706 596.709 389.431 601.376C391.233 613.131 372.717 626.915 357.826 637.988C354.828 640.22 352.026 642.307 349.577 644.22H350.929C353.202 642.437 355.769 640.539 358.512 638.495C373.54 627.306 392.252 613.392 390.391 601.29H390.41Z" fill="white"/>
<path d="M16.172 564.432C19.3462 562.954 23.0102 562.766 26.1647 562.766C27.6539 562.766 29.1626 562.809 30.7497 562.867C32.3368 562.925 33.963 562.983 35.5893 562.983C39.2337 562.983 43.995 562.722 48.3056 560.751C59.4348 555.649 63.138 549.721 61.8448 546.388C61.0023 544.184 58.1024 542.909 53.9094 542.909C50.167 542.909 45.4253 543.895 40.1742 545.779C36.8237 546.982 33.8063 549.112 30.8868 551.199C27.36 553.707 23.7155 556.301 19.5225 557.142C18.2293 557.403 16.9557 557.533 15.6234 557.533C12.9782 557.533 10.6074 557.026 8.09941 556.504C5.61102 555.982 3.06384 555.432 0.242355 555.432C-0.73732 555.432 -1.71701 555.504 -2.69669 555.635C-7.67348 556.316 -11.0632 558.649 -14.3549 560.91C-17.098 562.794 -19.9195 564.737 -23.6423 565.693C-27.8549 566.78 -33.5763 567.317 -41.1198 567.317C-50.9167 567.317 -61.7715 566.403 -70.5103 565.679C-73.0183 565.461 -75.3499 565.273 -77.4269 565.114C-95.551 563.766 -114.42 559.562 -135.071 552.272C-156.938 544.547 -172.574 537.387 -185.153 531.618C-192.011 528.473 -199.045 526.879 -206.02 526.879C-214.896 526.879 -222.773 529.372 -229.493 533.213V533.749C-222.812 529.85 -214.915 527.314 -206.02 527.314C-199.143 527.314 -192.226 528.879 -185.447 531.995C-172.868 537.764 -157.212 544.938 -135.307 552.663C-114.596 559.983 -95.6685 564.2 -77.4856 565.548C-75.4087 565.708 -73.0771 565.896 -70.5691 566.114C-61.8303 566.853 -50.9362 567.751 -41.1198 567.751C-33.5175 567.751 -27.7374 567.215 -23.466 566.114C-19.6256 565.128 -16.7453 563.142 -13.963 561.229C-10.5929 558.91 -7.39915 556.722 -2.59872 556.055C-1.65822 555.924 -0.737335 555.866 0.222763 555.866C2.96587 555.866 5.49345 556.403 7.92307 556.925C10.3527 557.446 12.8802 557.983 15.6234 557.983C16.9949 557.983 18.3273 557.852 19.6792 557.577C24.0094 556.693 27.7126 554.069 31.2983 551.533C34.1786 549.489 37.1764 547.359 40.4485 546.199C45.6212 544.358 50.2845 543.373 53.9289 543.373C57.9065 543.373 60.5124 544.489 61.2962 546.532C62.5306 549.721 58.8861 555.432 48.0117 560.418C43.8186 562.345 39.1749 562.592 35.5893 562.592C33.9826 562.592 32.3563 562.534 30.7888 562.476C29.2605 562.418 27.6931 562.374 26.1844 562.374C22.9318 562.374 19.1698 562.577 15.8781 564.113C12.2533 565.795 9.49055 570.056 6.82582 574.187C5.21915 576.68 3.69084 579.028 2.08417 580.651C-11.3179 594.159 -12.1408 608.711 -9.24097 626.393C-8.24168 632.466 -6.57623 638.452 -4.57768 644.293H-3.97028C-5.98843 638.438 -7.67348 632.437 -8.67276 626.35C-11.553 608.769 -10.7497 594.318 2.55441 580.926C4.20027 579.259 5.72858 576.897 7.35484 574.39C9.98039 570.331 12.7039 566.128 16.1916 564.505L16.172 564.432Z" fill="white"/>
<path d="M77.6181 80.3105C74.2479 80.3105 69.4867 81.9049 65.9794 89.4706C62.0411 97.993 69.6238 99.9641 77.6572 102.066C79.068 102.428 80.5179 102.819 81.9287 103.24C85.0832 104.182 87.748 104.66 89.8249 104.66C92.1369 104.66 93.8024 104.08 94.7625 102.95C97.7603 99.4279 92.9599 91.6447 90.7458 88.4705C87.1798 83.3687 82.2617 80.325 77.5984 80.325L77.6181 80.3105ZM93.9396 102.559C92.3721 104.399 88.4141 104.385 82.2813 102.559C80.851 102.138 79.3815 101.747 77.9707 101.385C70.0941 99.3264 63.2755 97.5437 66.9003 89.7025C69.5259 84.021 73.2291 81.0207 77.5984 81.0207C81.9678 81.0207 86.4744 83.9195 89.8641 88.7749C94.2923 95.1667 95.8205 100.312 93.92 102.544L93.9396 102.559Z" fill="white"/>
<path d="M89.1585 641.801C88.2964 639.482 86.8269 637.829 85.4161 636.25C83.2412 633.829 81.3798 631.727 82.1244 627.771C83.1433 622.364 91.9996 609.001 101.561 609.001C101.659 609.001 101.757 609.001 101.836 609.001C106.616 609.132 109.653 610.03 110.868 611.654C113.082 614.625 109.085 619.669 105.892 623.712C104.167 625.901 102.659 627.8 102.404 629.032C101.875 631.481 103.344 632.887 104.755 634.235C105.891 635.307 106.95 636.322 106.91 637.829C106.812 640.975 104.931 642.453 102.933 644.018C102.835 644.091 102.757 644.163 102.659 644.236H103.462C105.5 642.641 107.4 641.105 107.498 637.844C107.557 636.192 106.362 635.061 105.225 633.974C103.893 632.699 102.502 631.365 102.992 629.104C103.246 627.959 104.716 626.089 106.421 623.944C109.693 619.799 113.768 614.654 111.397 611.451C110.065 609.653 106.95 608.711 101.875 608.566C101.777 608.566 101.679 608.566 101.561 608.566C91.6861 608.566 82.5947 622.191 81.5562 627.713C80.7724 631.843 82.8102 634.104 84.9459 636.496C86.337 638.061 87.787 639.67 88.6099 641.917C88.943 642.801 89.0997 643.554 89.1977 644.236H89.7855C89.6876 643.511 89.5112 642.728 89.1781 641.815L89.1585 641.801Z" fill="white"/>
<path d="M-187.7 171.288C-172.809 176.926 -160.151 179.564 -147.885 179.564C-135.62 179.564 -123.609 176.708 -110.383 173.404C-102.879 171.534 -94.3752 169.403 -84.7351 167.606C-79.8367 166.693 -75.5849 166.592 -72.8026 166.592C-70.9412 166.592 -69.1385 166.65 -67.4143 166.693C-65.7684 166.737 -64.2206 166.794 -62.6922 166.794C-54.7568 166.794 -48.4281 165.403 -41.5115 158.49C-36.8482 153.823 -35.0848 150.214 -33.5565 147.039C-31.2444 142.285 -29.4222 138.532 -19.2727 133.154C-16.6667 131.777 -12.944 130.69 -9.31912 129.647C-3.51941 127.951 1.49657 126.502 1.7121 124.023C1.88843 122.023 -1.26614 119.791 -8.22189 116.994C-16.5296 113.66 -28.4034 113.211 -38.9251 113.211C-43.608 113.211 -48.5456 113.312 -53.3069 113.414C-58.0877 113.515 -63.0449 113.631 -67.767 113.631C-78.328 113.631 -85.7148 113.095 -91.7496 111.878C-125.843 105.022 -157.819 92.0645 -186.034 80.6144C-200.847 74.614 -215.209 68.7875 -229.552 63.7871V64.5843C-215.366 69.5411 -201.161 75.3097 -186.505 81.2521C-158.25 92.7167 -126.234 105.703 -92.0043 112.573C-85.8911 113.805 -78.4063 114.356 -67.767 114.356C-63.0253 114.356 -58.0681 114.254 -53.2677 114.139C-48.5064 114.037 -43.5884 113.936 -38.9251 113.936C-28.5405 113.936 -16.8235 114.37 -8.69214 117.632C-2.3046 120.197 0.869568 122.342 0.732407 123.98C0.556061 125.994 -4.42072 127.444 -9.67181 128.966C-13.3358 130.038 -17.1174 131.14 -19.8213 132.56C-30.2256 138.068 -32.1849 142.112 -34.4578 146.793C-35.9861 149.924 -37.7103 153.475 -42.2952 158.055C-48.9767 164.722 -55.0507 166.07 -62.6922 166.07C-64.201 166.07 -65.7489 166.026 -67.3751 165.968C-69.119 165.91 -70.9216 165.867 -72.8026 165.867C-75.6436 165.867 -79.9738 165.968 -84.9702 166.896C-94.6495 168.693 -103.173 170.824 -110.697 172.708C-123.844 175.998 -135.189 178.839 -147.885 178.839C-160.582 178.839 -172.515 176.23 -187.269 170.65C-200.749 165.534 -212.878 158.736 -224.614 152.156C-226.24 151.243 -227.867 150.33 -229.513 149.416V150.33C-228.063 151.127 -226.632 151.938 -225.202 152.736C-213.446 159.33 -201.278 166.157 -187.719 171.288H-187.7Z" fill="white"/>
<path d="M289.112 624.045C288.171 623.741 286.702 623.596 284.762 623.596C273.398 623.596 249.317 628.611 249.063 628.654C246.378 629.219 243.694 629.828 241.088 630.466C227.764 633.741 217.909 638.118 210.737 644.22H211.521C218.614 638.321 228.293 634.075 241.284 630.872C243.87 630.234 246.555 629.625 249.239 629.06C249.474 629.002 273.476 624.016 284.762 624.016C286.624 624.016 288.015 624.161 288.877 624.436C293.227 625.813 291.639 629.48 288.132 637.524C287.29 639.452 286.31 641.713 285.311 644.22H285.918C286.917 641.771 287.878 639.553 288.7 637.669C292.208 629.625 293.971 625.581 289.132 624.045H289.112Z" fill="white"/>
<path d="M262.523 637.09C259.799 637.09 256.507 637.496 252.745 638.278C250.237 638.8 247.749 639.365 245.359 639.96C240.323 641.206 235.954 642.612 232.133 644.221H234.19C237.58 642.902 241.361 641.699 245.672 640.641C248.062 640.061 250.531 639.496 253.02 638.974C256.703 638.206 259.897 637.815 262.523 637.815C267.401 637.815 270.38 639.134 271.32 641.742C271.594 642.482 271.653 643.322 271.594 644.221H272.574C272.613 643.264 272.554 642.351 272.261 641.554C271.516 639.51 269.224 637.09 262.503 637.09H262.523Z" fill="white"/>
<path d="M324.067 613.132C322.362 610.595 316.484 609.697 305.943 610.334C287.133 611.479 267.324 614.277 245.379 618.871C242.44 619.48 239.559 620.147 236.777 620.828C216.85 625.727 202.959 633.235 193.906 644.206H194.592C203.566 633.437 217.321 626.06 236.953 621.234C239.716 620.553 242.616 619.9 245.536 619.292C267.441 614.711 287.231 611.914 306.001 610.769C308.157 610.639 310.136 610.566 311.899 610.566C318.502 610.566 322.303 611.465 323.557 613.32C325.752 616.581 319.58 622.611 313.623 628.452C312.565 629.481 311.507 630.524 310.488 631.553C306.354 635.713 302.671 639.96 299.359 644.221H300.045C303.298 640.047 306.903 635.887 310.959 631.814C311.978 630.785 313.036 629.756 314.094 628.712C320.442 622.495 326.438 616.625 324.086 613.132H324.067Z" fill="white"/>
<path d="M343.856 620.595C352.889 614.32 356.514 609.348 354.633 605.826C352.399 601.652 342.426 599.521 325.007 599.521C319.207 599.521 312.604 599.753 304.826 600.232C285.134 601.435 264.463 604.348 241.656 609.116C238.56 609.769 235.464 610.464 232.466 611.203C206.328 617.624 188.694 628.321 178.31 644.22H178.976C189.302 628.524 206.799 617.972 232.662 611.624C235.66 610.885 238.756 610.189 241.832 609.537C264.62 604.768 285.232 601.869 304.904 600.667C312.663 600.188 319.247 599.956 325.046 599.956C342.191 599.956 351.968 601.985 354.123 605.986C355.906 609.319 352.34 614.131 343.504 620.277C341.721 621.509 340.016 622.712 338.566 623.784C331.806 628.813 325.967 633.162 321.598 637.553C319.423 639.742 317.385 641.974 315.387 644.22H316.092C318.012 642.046 319.991 639.916 322.088 637.814C326.438 633.451 332.257 629.118 338.997 624.088C340.427 623.016 342.132 621.827 343.915 620.595H343.856Z" fill="white"/>
<path d="M118.255 0.681781C119.235 -2.24597 120.195 -5.13023 121.096 -8H120.097C119.215 -5.1882 118.275 -2.36192 117.315 0.507855C115.512 5.88505 113.65 11.4362 112.142 17.1177C107.126 36.0321 102.796 60.831 113.984 84.8907C118.529 94.674 129.874 102.66 139.867 109.704C148.762 115.98 156.443 121.401 155.757 125.952C155.444 128.039 153.367 129.908 149.428 131.648C147.606 132.445 144.51 132.851 140.2 132.851C125.152 132.851 98.6222 127.937 78.9893 123.067C57.6322 117.777 31.3376 109.342 27.2621 99.2251C25.9689 96.0074 27.027 92.7463 30.4363 89.5577C34.8056 85.456 39.4885 81.8615 44.0147 78.3685C52.9298 71.5129 61.355 65.0342 66.9392 55.4248C74.8942 41.7137 75.8543 27.4083 69.7999 12.9145C68.3304 9.40704 66.8609 6.17493 65.5481 3.31965C63.6279 -0.898043 61.9429 -4.57947 60.8064 -8H59.7875C60.9436 -4.507 62.6482 -0.753105 64.6272 3.55155C65.9204 6.40683 67.4095 9.62445 68.8594 13.1319C74.8355 27.4518 73.8754 41.5833 66.0183 55.135C60.5125 64.6284 52.146 71.0636 43.2897 77.8612C38.744 81.3542 34.0415 84.9777 29.6329 89.1084C26.0277 92.4999 24.8912 95.9785 26.2824 99.4425C30.4754 109.849 57.0836 118.415 78.6366 123.763C98.3478 128.647 124.995 133.575 140.161 133.575C144.648 133.575 147.92 133.141 149.899 132.271C154.111 130.416 156.345 128.372 156.698 126.039C157.442 121.125 149.605 115.589 140.513 109.182C130.599 102.196 119.352 94.2682 114.885 84.6443C103.775 60.744 108.086 36.0611 113.082 17.2482C114.591 11.5956 116.433 6.04448 118.235 0.681781H118.255Z" fill="white"/>
<path d="M372.15 600.42C366.389 591.347 343.131 589.434 324.615 589.434C318.11 589.434 311.076 589.665 303.689 590.115C283.116 591.376 261.602 594.39 237.914 599.347C234.602 600.043 231.31 600.797 228.136 601.565C207.759 606.565 192.084 613.812 180.23 623.697C173.137 629.61 167.533 636.422 163.262 644.22H163.869C175.214 623.523 196.101 609.899 228.332 601.985C231.506 601.203 234.779 600.463 238.09 599.768C261.739 594.825 283.214 591.811 303.748 590.55C311.115 590.1 318.15 589.868 324.635 589.868C342.975 589.868 365.997 591.724 371.621 600.594C377.793 610.319 362.803 620.74 352.869 627.639C351.184 628.813 349.597 629.929 348.245 630.915C341.877 635.654 336.372 639.756 332.59 643.553C332.374 643.771 332.159 643.988 331.943 644.22H332.668C332.806 644.09 332.923 643.959 333.06 643.814C336.803 640.046 342.289 635.959 348.657 631.234C349.989 630.248 351.576 629.132 353.261 627.973C363.313 620.987 378.478 610.435 372.13 600.434L372.15 600.42Z" fill="white"/>
<path d="M20.6002 4.53795C34.0218 35.4677 39.4884 52.2805 6.15964 66.5279C0.693008 68.8614 -5.51817 70.6006 -12.2976 71.6587C-18.0385 72.5573 -24.3673 73.0211 -31.0683 73.0211C-93.0234 73.0211 -178.099 34.7285 -223.831 14.1618L-225.398 13.4661C-226.789 12.8429 -228.161 12.2197 -229.493 11.6254V12.4661C-228.318 12.9878 -227.122 13.5241 -225.908 14.0749L-224.34 14.7706C-178.55 35.3807 -93.2977 73.7313 -31.0683 73.7458C-24.2889 73.7458 -17.9014 73.282 -12.082 72.3689C-5.20468 71.2819 1.10448 69.5281 6.64948 67.1511C40.6248 52.6283 35.119 35.6126 21.5406 4.30605C19.8164 0.349245 18.0334 -3.78148 16.3875 -8.01367H15.3687C17.0341 -3.70902 18.8563 0.494184 20.6002 4.52346V4.53795Z" fill="white"/>
<path d="M2.12334 8.92875C7.55077 21.4514 12.7627 37.1627 4.63132 47.5402C0.614624 52.6855 -6.45868 56.077 -16.3339 57.6279C-20.762 58.3236 -25.7193 58.6859 -31.0683 58.6859C-87.5764 58.6859 -169.654 21.7558 -213.74 1.91375L-221.891 -1.75318C-224.379 -2.8692 -226.926 -3.91275 -229.493 -4.89833V-4.40554C-227.024 -3.46344 -224.595 -2.46337 -222.185 -1.39083L-214.053 2.2616C-169.909 22.1181 -87.7527 59.0918 -31.0683 59.1063C-25.6801 59.1063 -20.6641 58.7439 -16.2163 58.0482C-6.16478 56.4684 1.02609 53.0044 5.14075 47.7431C13.3897 37.2206 8.15817 21.3934 2.69154 8.78381C0.340317 3.37763 -1.97174 -2.24596 -3.97029 -8H-4.5777C-2.57915 -2.18799 -0.227905 3.47908 2.14293 8.92875H2.12334Z" fill="white"/>
<path d="M-23.2502 284.079C-27.9135 279.107 -31.9694 278.469 -36.28 277.788C-39.2386 277.324 -42.3149 276.832 -45.8221 274.875L-46.116 274.629C-56.1088 266.353 -89.6335 239.365 -100.978 239.365C-102.311 239.365 -103.349 239.713 -104.074 240.409C-105.583 241.873 -105.504 244.815 -103.839 249.409C-102.84 252.134 -93.3563 255.903 -83.3048 259.903C-74.9383 263.222 -66.2779 266.657 -63.3388 269.237C-60.7133 271.556 -57.2452 274.759 -57.5587 275.861C-57.6371 276.165 -58.0877 276.339 -58.8519 276.614C-60.5957 277.252 -63.2409 278.238 -61.8301 282.803C-60.8504 285.963 -58.2053 289.108 -55.6581 292.152C-53.2677 294.978 -51.0144 297.659 -50.1131 300.254C-47.6051 307.385 -63.3976 320.472 -73.841 329.125C-77.2895 331.981 -80.2677 334.444 -82.1683 336.314C-89.7707 343.778 -99.2736 350.707 -108.443 357.388C-126.293 370.404 -144.731 383.854 -151.236 402.42C-160.935 430.176 -162.875 454.685 -156.977 475.266C-153.842 486.252 -143.026 501.558 -132.544 501.558C-126.019 501.558 -121.258 495.76 -118.417 484.31C-107.444 440.22 -77.5246 425.552 -48.5652 411.363C-22.9171 398.797 1.30061 386.926 11.7244 356.084C15.6432 344.445 9.60831 326.56 1.75125 316.661C-1.75601 312.24 -6.16457 309.762 -10.436 307.356C-14.1784 305.24 -17.7248 303.254 -20.4679 300.065C-22.4077 297.819 -22.055 295.181 -21.7023 292.413C-21.33 289.543 -20.9382 286.572 -23.2894 284.05L-23.2502 284.079ZM-21.5848 300.645C-18.7241 303.979 -15.0797 306.022 -11.2197 308.196C-7.06587 310.544 -2.75526 312.965 0.614838 317.211C8.33473 326.937 14.2716 344.489 10.4312 355.881C0.144577 386.332 -23.8576 398.101 -49.2902 410.551C-78.4651 424.857 -108.659 439.655 -119.729 484.165C-122.394 494.905 -126.822 500.587 -132.524 500.587C-141.42 500.587 -152.255 486.876 -155.625 475.092C-161.464 454.67 -159.544 430.306 -149.884 402.71C-143.496 384.405 -125.176 371.056 -107.464 358.142C-98.2547 351.431 -88.7322 344.489 -81.0515 336.952C-79.1901 335.126 -76.2315 332.676 -72.8026 329.835C-61.5166 320.487 -46.0768 307.674 -48.7808 300.036C-49.7604 297.282 -52.0529 294.558 -54.5021 291.659C-57.0101 288.688 -59.5769 285.629 -60.4978 282.629C-61.6734 278.832 -59.8512 278.165 -58.2445 277.571C-57.3628 277.238 -56.4419 276.904 -56.2067 276.107C-55.9128 275.049 -56.8142 273.426 -62.2808 268.628C-65.3766 265.903 -74.1545 262.425 -82.6386 259.048C-91.5537 255.511 -101.644 251.497 -102.487 249.192C-104.407 243.945 -103.8 241.887 -102.957 241.076C-102.507 240.641 -101.86 240.438 -100.959 240.438C-92.3962 240.438 -67.5319 258.483 -47.1153 275.353C-46.8606 275.556 -46.7234 275.672 -46.7038 275.672C-42.8831 277.817 -39.513 278.354 -36.5543 278.817C-32.3613 279.484 -28.7365 280.049 -24.3671 284.702C-22.2901 286.905 -22.6428 289.572 -23.0151 292.384C-23.3874 295.21 -23.7793 298.138 -21.5848 300.688V300.645Z" fill="white"/>
<path d="M103.344 -7.91304C103.344 -7.91304 103.403 -7.97101 103.442 -8H102.639C101.404 -7.02892 100.17 -6.01435 99.3079 -4.53598C96.8783 -0.303795 97.5641 4.10232 98.2302 8.36349C98.6025 10.7405 98.9944 13.1899 98.8377 15.5959C98.6025 19.3788 97.5445 23.2921 96.5452 27.0895C95.7223 30.2201 94.8601 33.4523 94.4487 36.6119C91.9407 55.7872 94.2136 73.1218 101.189 88.1373C102.639 91.2535 108.321 96.0509 114.336 101.124C122.017 107.617 129.972 114.328 130.285 118.4C130.364 119.313 130.05 120.024 129.325 120.589C127.248 122.212 121.684 122.517 112.769 121.473C106.303 120.719 100.072 118.719 94.0568 116.777C90.5495 115.647 86.9051 114.473 83.2803 113.574C82.2614 113.313 81.2034 113.067 80.1061 112.791C67.0763 109.617 49.2461 105.254 46.6794 97.6308C45.4645 93.9928 47.855 89.8331 53.7919 85.2676C63.138 78.0786 72.8173 70.6433 79.3616 59.3527C85.6315 48.5258 92.8616 27.4663 90.0989 16.0742C89.5307 13.7407 88.2179 12.1609 86.9443 10.639C85.2397 8.59539 83.633 6.66772 84.3579 3.17472C84.9066 0.594819 86.2585 -0.912535 87.4537 -2.23147C88.8841 -3.82579 90.1381 -5.27517 89.7854 -8H89.1976C89.5503 -5.40561 88.3746 -4.05769 86.9639 -2.46337C85.7295 -1.10095 84.3384 0.449882 83.7897 3.11674C83.0256 6.76918 84.691 8.76932 86.4545 10.8709C87.7085 12.3638 88.9821 13.9001 89.5307 16.1612C92.2738 27.4808 85.0829 48.4243 78.8325 59.1932C72.3274 70.4114 62.6874 77.8177 53.3804 84.9777C47.3063 89.6592 44.8571 93.9493 46.1307 97.7467C48.7563 105.602 66.7824 110.008 79.9494 113.226C81.0466 113.487 82.1047 113.748 83.1236 114.009C86.7288 114.907 90.3536 116.067 93.8413 117.197C99.8957 119.14 106.146 121.154 112.69 121.922C116.198 122.328 119.215 122.546 121.684 122.546C125.72 122.546 128.365 122.009 129.756 120.908C130.579 120.256 130.952 119.415 130.873 118.4C130.54 114.183 122.526 107.414 114.767 100.863C108.791 95.819 103.148 91.0506 101.738 88.0214C94.7818 73.0638 92.5285 55.7872 95.0169 36.6844C95.4283 33.5537 96.2905 30.3216 97.1134 27.2054C98.1323 23.3936 99.1707 19.4657 99.4059 15.6539C99.5626 13.2189 99.1707 10.7405 98.7985 8.349C98.1127 3.94289 97.4465 -0.20234 99.8369 -4.33307C100.719 -5.85492 102.031 -6.88398 103.325 -7.89854L103.344 -7.91304Z" fill="white"/>
<path d="M39.0574 0.145511C51.4602 28.7128 64.2744 58.2366 15.8585 78.9483C8.62846 82.0499 0.497101 84.311 -8.26126 85.6879C-15.3346 86.8039 -23.0153 87.3692 -31.0683 87.3692C-96.5502 87.3692 -178.432 51.3666 -229.493 28.4084V29.5969C-178.256 52.613 -96.609 88.3837 -31.0879 88.3837C-22.9173 88.3837 -15.1582 87.8185 -7.98694 86.6879C0.928162 85.2821 9.17709 82.9775 16.5443 79.8324C65.9203 58.7149 52.9297 28.7852 40.3702 -0.158859C39.2337 -2.79673 38.0973 -5.40561 37.0197 -8H35.5893C36.7061 -5.30415 37.8818 -2.59382 39.077 0.145511H39.0574Z" fill="white"/>
<path d="M167.415 500.108C193.416 497.92 221.298 475.643 221.651 456.772C222.199 427.842 199.725 404.725 177.976 382.375C174.293 378.578 170.472 374.65 166.867 370.795L164.692 368.476C154.464 357.576 142.865 345.213 139.083 331.865C135.889 320.545 131.01 294.21 136.32 285.108C140.219 278.44 151.309 274.629 162.027 270.947C169.434 268.396 176.428 265.99 181.346 262.7L181.582 262.541C192.789 255.033 202.214 251.182 209.855 250.989C213.323 250.902 217.634 250.786 223.728 250.366C231.898 249.801 236.718 248.917 240.245 248.279C242.479 247.873 244.105 247.569 245.535 247.569C249.062 247.569 252.021 249.424 261.798 255.54C290.699 273.643 290.15 305.123 289.641 335.575C288.974 373.882 288.289 413.508 346.913 426.045C355.338 427.842 363.548 428.77 371.307 428.77C393.35 428.77 412.101 421.48 425.562 407.711C445.312 387.492 450.563 355.953 438.611 329.212C411.043 267.498 345.169 232.205 274.318 198.58C209.914 168.012 148.586 159.591 96.1337 154.098C92.3326 153.707 88.7274 153.504 85.3964 153.504C64.1373 153.504 54.027 161.504 41.2323 171.636C36.3339 175.52 31.2592 179.52 24.9696 183.622C17.7591 188.304 8.60891 191.507 -0.26701 194.608C-14.7271 199.667 -28.3839 204.435 -34.0269 215.059C-45.9986 237.597 -16.5885 255.149 9.37308 270.657C21.384 277.832 32.7287 284.6 39.3905 291.369C65.744 318.211 57.8674 363.475 33.9631 388.912C26.4979 396.855 12.1946 406.667 -2.95133 417.074C-28.0312 434.292 -56.4616 453.815 -61.4776 470.208C-63.8484 477.918 -63.2214 483.31 -59.5966 486.673C-56.5596 489.484 -51.4456 490.847 -43.9608 490.847C-31.6364 490.847 -14.0021 487.093 4.67059 483.122C27.4972 478.266 53.3804 472.759 75.4429 472.759C85.9646 472.759 94.6838 473.962 102.071 476.455C110.574 479.324 117.785 483.455 124.74 487.47C136.242 494.079 147.097 500.326 162.458 500.326C164.065 500.326 165.73 500.253 167.396 500.108H167.415ZM102.502 475.788C94.9777 473.251 86.141 472.019 75.4624 472.019C53.2628 472.019 27.3012 477.542 4.41587 482.411C-14.1981 486.368 -31.7736 490.108 -43.9608 490.108C-51.1321 490.108 -55.9913 488.832 -58.8128 486.209C-62.2417 483.035 -62.8099 477.846 -60.5175 470.367C-55.5603 454.192 -27.2475 434.756 -2.28515 417.595C12.8999 407.174 27.2425 397.318 34.7664 389.318C58.8666 363.678 66.7825 318.023 40.1743 290.934C33.4537 284.093 22.0502 277.281 9.98048 270.077C-15.7068 254.743 -44.823 237.35 -33.1256 215.32C-27.6197 204.971 -14.1393 200.246 0.144455 195.261C9.07915 192.144 18.3078 188.912 25.6162 184.158C31.9449 180.042 37.0393 176.013 41.9573 172.128C54.5952 162.128 64.5684 154.229 85.416 154.229C88.7077 154.229 92.2738 154.432 96.0162 154.823C148.351 160.301 209.561 168.708 273.809 199.203C344.503 232.756 410.239 267.961 437.71 329.459C449.564 355.997 444.372 387.274 424.798 407.305C411.533 420.885 393.036 428.06 371.327 428.06C363.665 428.06 355.554 427.161 347.207 425.364C321.245 419.813 304.806 408.392 296.988 390.477C289.974 374.433 290.326 354.692 290.659 335.604C291.188 304.993 291.737 273.339 262.484 255.004C248.514 246.25 248.122 246.105 240.049 247.583C236.561 248.221 231.761 249.09 223.669 249.656C217.614 250.076 213.304 250.192 209.855 250.279C201.979 250.482 192.345 254.395 180.955 262.019L180.72 262.178C175.919 265.396 168.983 267.787 161.635 270.309C150.741 274.049 139.475 277.933 135.439 284.847C130.031 294.108 134.929 320.632 138.143 332.038C141.944 345.532 153.602 357.953 163.889 368.925L166.063 371.244C169.669 375.099 173.489 379.027 177.193 382.825C198.844 405.087 221.239 428.089 220.691 456.786C220.338 475.353 192.907 497.253 167.317 499.413C165.691 499.543 164.065 499.616 162.497 499.616C147.469 499.616 136.751 493.441 125.387 486.919C118.373 482.89 111.123 478.716 102.521 475.817L102.502 475.788Z" fill="white"/>
<path d="M416.51 -0.360949C419.567 7.29177 441.453 11.524 455.403 11.524C475.31 11.524 496.178 8.6252 518.279 5.55252C540.597 2.45085 563.658 -0.752281 586.113 -0.752281C610.722 -0.752281 631.374 3.14655 649.282 11.1616C650.223 11.5819 651.242 12.0457 652.222 12.4806V11.6254C651.418 11.2631 650.576 10.8862 649.772 10.5239C631.707 2.43635 610.879 -1.49147 586.093 -1.49147C563.56 -1.49147 540.44 1.72616 518.083 4.82783C496.041 7.90051 475.213 10.7848 455.384 10.7848C441.433 10.7848 420.252 6.46563 417.431 -0.578356C416.49 -2.94084 417.627 -5.41928 420.821 -8.01367H419.547C416.549 -5.3903 415.511 -2.83939 416.49 -0.375442L416.51 -0.360949Z" fill="white"/>
<path d="M581.782 49.8744C579.215 49.8744 576.707 49.8599 574.238 49.8454C571.867 49.8454 569.536 49.8164 567.243 49.8164C553.88 49.8164 543.241 50.3527 531.524 52.9761C525.391 54.353 519.65 56.5125 514.086 58.6141C504.818 62.1071 496.04 65.4117 485.557 65.4117C483.813 65.4117 482.05 65.3248 480.326 65.1363C472.586 64.3102 466.806 60.9331 461.202 57.672C454.913 54.0051 448.956 50.5411 440.629 50.5411C439.865 50.5411 439.101 50.5701 438.317 50.6281C433.164 51.0194 424.934 54.4399 416.96 57.759C411.826 59.8896 406.987 61.9042 403.558 62.8318C398.561 64.1942 394.819 64.8465 392.096 65.3393C383.866 66.7886 382.828 67.3249 378.811 78.5431C377.714 81.6448 376.91 84.5435 376.127 87.3408C373.246 97.7474 370.974 105.965 355.984 113.806C345.874 119.097 333.04 121.662 316.738 121.662C300.593 121.662 283.723 119.169 268.832 116.952C261.053 115.792 253.686 114.705 248.239 114.285C245.065 114.038 240.166 113.879 235.15 113.879C220.769 113.879 203.918 117.778 202.743 123.358C202.194 126.01 204.976 129.982 221.474 133.88L223.316 134.315C286.153 149.229 329.984 168.68 374.579 201.465C386.884 210.509 396.289 214.727 404.146 214.727C405.987 214.727 407.81 214.48 409.514 214.017C417.881 211.712 423.974 203.9 431.048 194.856C434.692 190.189 438.826 184.899 443.725 179.797C467.394 155.128 501.35 137.098 539.342 129.039C550.549 126.662 561.502 125.46 571.867 125.46C605.706 125.46 629.59 137.721 652.201 150.331V149.418C629.629 136.852 605.745 124.735 571.867 124.735C561.404 124.735 550.373 125.952 539.068 128.344C500.86 136.446 466.708 154.578 442.921 179.376C438.003 184.493 433.869 189.812 430.205 194.493C423.23 203.422 417.215 211.118 409.181 213.335C407.575 213.785 405.89 214.002 404.146 214.002C396.543 214.002 387.373 209.857 375.265 200.958C330.552 168.086 286.603 148.577 223.61 133.634L221.768 133.199C209.424 130.286 203.017 126.822 203.722 123.488C204.702 118.85 219.691 114.618 235.17 114.618C240.147 114.618 245.006 114.763 248.141 115.009C253.549 115.43 260.897 116.517 268.656 117.676C283.586 119.894 300.515 122.401 316.758 122.401C333.256 122.401 346.286 119.792 356.572 114.415C371.875 106.4 374.187 98.0517 377.106 87.5003C377.89 84.703 378.674 81.8187 379.791 78.7315C383.768 67.5568 384.591 67.4119 392.35 66.0495C395.113 65.5567 398.875 64.9044 403.93 63.5275C407.437 62.5709 412.316 60.5418 417.469 58.3967C424.974 55.2806 433.497 51.7296 438.435 51.3528C439.179 51.2948 439.924 51.2658 440.649 51.2658C448.643 51.2658 454.462 54.6573 460.634 58.2373C466.336 61.5564 472.234 64.9914 480.228 65.8465C482.011 66.035 483.833 66.1364 485.616 66.1364C496.334 66.1364 505.621 62.6434 514.575 59.2664C520.101 57.1937 525.803 55.0342 531.837 53.6863C543.457 51.0774 553.998 50.5556 567.263 50.5556C569.555 50.5556 571.867 50.5556 574.238 50.5846C576.707 50.5991 579.215 50.6136 581.782 50.6136C593.753 50.6136 604.452 51.6426 614.523 53.7732C627.239 56.4546 639.72 60.2085 652.221 64.5856V63.7884C639.818 59.4693 627.435 55.7444 614.797 53.0775C604.647 50.9324 593.851 49.8889 581.782 49.8889V49.8744Z" fill="white"/>
<path d="M395.133 14.4796C412.043 22.3352 431.754 26.1471 455.384 26.1471C477.133 26.1471 499.901 22.9874 521.924 19.9147C543.359 16.929 565.5 13.8563 586.093 13.8563C606.686 13.8563 624.281 17.0595 639.016 23.6541C641.582 24.7991 644.286 26.0166 647.088 27.2921C648.754 28.0458 650.458 28.8139 652.202 29.5966V28.4081C650.713 27.7414 649.243 27.0747 647.793 26.4224C644.972 25.1615 642.288 23.944 639.721 22.7845C624.791 16.0884 607.235 12.8418 586.093 12.8418C564.952 12.8418 543.144 15.9289 521.669 18.9147C499.705 21.9729 477.015 25.118 455.384 25.118C432.009 25.118 412.533 21.3496 395.858 13.5954C384.651 8.39217 379.243 2.91352 379.772 -2.66659C379.948 -4.44933 380.732 -6.24656 382.104 -8.0293H380.575C379.321 -6.27555 378.577 -4.50731 378.42 -2.73906C377.852 3.24687 383.475 9.0299 395.133 14.4506V14.4796Z" fill="white"/>
<path d="M581.782 64.5134C565.304 64.5134 547.787 66.7164 529.193 69.0644C508.286 71.7023 486.655 74.4271 463.632 74.4271C461.967 74.4271 460.321 74.4271 458.754 74.3836C450.759 74.2387 443.98 73.2676 438.004 72.4125C432.831 71.6733 428.364 71.0211 424.073 71.0211C413.884 71.0211 406.399 74.9924 398.229 84.7032C394.29 89.3847 391.41 94.9938 388.628 100.4C383.71 109.98 378.616 119.894 367.388 125.764C363.528 127.779 356.122 129.344 348.285 131.011C334.589 133.91 319.07 137.185 316.954 144.026C314.329 152.607 338.135 164.332 350.93 170.637C353.301 171.811 355.358 172.825 356.71 173.55C371.719 181.696 384.121 187.116 395.917 187.116C397.523 187.116 399.13 187.015 400.698 186.797C410.103 185.551 418.645 180.623 427.58 171.304C453.836 143.939 491.593 123.923 533.895 114.937C546.886 112.183 559.661 110.792 571.887 110.792C605.686 110.792 630.707 120.894 652.221 132.141V131.605C630.707 120.387 605.686 110.357 571.887 110.357C559.622 110.357 546.788 111.763 533.738 114.531C491.299 123.532 453.444 143.606 427.11 171.057C418.273 180.275 409.848 185.145 400.6 186.363C399.071 186.566 397.504 186.667 395.917 186.667C384.278 186.667 371.973 181.275 357.063 173.188C355.711 172.449 353.634 171.434 351.263 170.26C338.586 164.013 314.995 152.389 317.523 144.099C319.56 137.504 334.902 134.272 348.441 131.417C356.338 129.75 363.783 128.185 367.721 126.112C379.105 120.17 384.219 110.198 389.177 100.559C391.939 95.1677 394.819 89.5876 398.719 84.9351C406.772 75.3547 414.1 71.4559 424.053 71.4559C428.285 71.4559 432.714 72.0936 437.867 72.8328C443.862 73.7024 450.681 74.6735 458.714 74.8184C460.301 74.8474 461.947 74.8619 463.613 74.8619C486.694 74.8619 508.345 72.1371 529.31 69.4847C547.846 67.1512 565.343 64.9337 581.763 64.9337C591.912 64.9337 600.866 65.7888 609.174 67.5426C623.419 70.5428 637.663 75.1373 652.202 80.5145V80.0217C637.722 74.6735 623.536 70.108 609.331 67.1078C600.964 65.3395 591.951 64.4844 581.743 64.4844L581.782 64.5134Z" fill="white"/>
<path d="M152.093 579.664C147.136 585.201 140.964 592.071 143.1 596.825C143.962 598.767 146.156 600.217 149.605 601.13C150.251 601.304 150.976 601.391 151.74 601.391C159.304 601.391 171.295 592.738 181.875 585.114C188.596 580.259 194.964 575.679 198.785 574.389C217.046 568.258 242.244 565.345 264.463 562.765C273.241 561.75 281.529 560.794 289.17 559.678C306.609 557.156 323.44 555.866 339.212 555.866C390.822 555.866 434.144 569.606 468.002 596.695C471.803 599.738 477.309 601.275 484.421 601.275C506.523 601.275 544.436 585.361 571.123 555.866C587.092 538.227 610.291 502.152 586.171 458.83C576.511 441.466 562.149 433.379 540.968 433.379C524.862 433.379 506.483 437.756 485.205 442.829C459.028 449.075 429.343 456.148 397.406 456.148C372.541 456.148 349.715 451.902 327.613 443.191C259.427 416.29 257.448 367.229 263.326 327.487C265.619 312.037 261.896 299.804 252.589 292.108C246.005 286.672 237.051 283.803 226.667 283.803C206.995 283.803 182.444 295.093 173.587 316.689C165.26 337.009 185.01 355.489 207.876 376.882C233.681 401 262.915 428.335 257.233 464.816C254.411 482.904 245.496 500.253 233.348 511.239C224.139 519.573 216.008 520.312 207.386 521.095C200.803 521.689 194.004 522.313 186.029 526.052C179.936 528.907 178.035 533.777 176.017 538.922C174.626 542.473 173.176 546.14 170.256 549.155C168.65 550.807 165.848 551.17 162.909 551.547C159.01 552.054 154.582 552.619 152.25 556.344C150.624 558.938 152.779 561.997 154.856 564.953C156.6 567.417 158.383 569.968 157.854 572.084C157.423 573.78 154.993 576.505 152.172 579.65L152.093 579.664ZM155.796 564.591C153.759 561.692 151.819 558.938 153.21 556.721C155.307 553.387 159.245 552.88 163.046 552.387C166.103 551.996 169.238 551.59 171.119 549.662C174.156 546.532 175.625 542.792 177.055 539.183C179.015 534.183 180.876 529.473 186.598 526.791C194.357 523.153 201.038 522.544 207.484 521.95C216.341 521.139 224.688 520.385 234.191 511.79C246.456 500.688 255.489 483.165 258.33 464.932C264.051 428.103 234.661 400.623 208.738 376.375C186.069 355.17 166.475 336.85 174.645 316.95C183.345 295.746 207.386 284.658 226.647 284.658C236.699 284.658 245.379 287.426 251.727 292.673C260.818 300.181 264.443 312.182 262.19 327.4C256.273 367.403 258.291 416.798 327.064 443.93C349.342 452.713 372.345 456.989 397.406 456.989C429.52 456.989 459.282 449.887 485.538 443.626C506.719 438.567 525.019 434.205 540.949 434.205C561.894 434.205 575.512 441.901 585.113 459.134C609.037 502.108 586.014 537.879 570.182 555.387C544.652 583.578 506.523 600.434 484.401 600.434C477.642 600.434 472.391 598.985 468.824 596.129C434.751 568.867 391.136 555.04 339.212 555.04C323.381 555.04 306.472 556.329 288.955 558.866C281.333 559.967 273.045 560.924 264.286 561.939C241.989 564.519 216.733 567.446 198.315 573.621C194.317 574.969 188.185 579.389 181.092 584.505C170.668 592.028 158.853 600.55 151.74 600.55C151.113 600.55 150.526 600.478 149.997 600.347C146.862 599.507 144.961 598.275 144.197 596.564C142.238 592.202 148.233 585.505 153.053 580.128C155.953 576.896 158.441 574.113 158.912 572.258C159.519 569.852 157.638 567.185 155.816 564.591H155.796Z" fill="white"/>
<path d="M30.4557 582.057C39.2925 576.144 53.2823 570.97 69.4863 564.969C80.7918 560.78 95.9965 550.49 95.0756 542.069C94.5858 537.474 89.5698 534.025 80.204 531.851C76.5204 530.996 72.4841 530.575 67.8796 530.575C55.8883 530.575 42.3687 533.518 30.4557 536.126C25.0087 537.315 19.8752 538.431 15.1727 539.228C-24.2497 545.852 -48.056 549.852 -69.3935 549.852C-88.2818 549.852 -104.838 546.721 -126.548 539.054C-147.435 531.677 -162.581 524.734 -174.749 519.169C-192.657 510.965 -201.004 507.342 -211.585 507.342C-216.522 507.342 -222.42 508.153 -229.493 509.82V510.574C-222.4 508.893 -216.483 508.052 -211.585 508.052C-201.259 508.052 -192.99 511.646 -175.238 519.777C-163.051 525.358 -147.905 532.3 -126.96 539.706C-105.113 547.432 -88.4189 550.577 -69.3739 550.577C-47.9384 550.577 -24.093 546.576 15.4078 539.938C20.1299 539.141 25.2831 538.025 30.7497 536.837C42.6039 534.257 56.0451 531.329 67.8992 531.329C72.4058 531.329 76.3441 531.735 79.9297 532.575C88.884 534.663 93.6453 537.895 94.1155 542.17C94.9973 550.272 80.1256 560.259 69.0552 564.36C52.7925 570.39 38.7439 575.593 29.8092 581.564C2.8483 599.595 7.1981 623.133 15.3687 644.265H16.3875C8.23656 623.278 3.84758 599.899 30.4557 582.101V582.057Z" fill="white"/>
<path d="M625.653 480.746C628.18 481.934 632.256 482.586 637.154 482.586C641.523 482.586 646.696 482.05 652.202 480.804V479.746C646.696 481.021 641.523 481.572 637.154 481.572C632.569 481.572 628.65 480.963 626.378 479.89C614.876 474.455 609.782 464.846 604.393 454.686C599.75 445.917 594.93 436.844 585.603 430.452V430.148H585.172C574.435 423.147 559.994 419.741 540.988 419.741C521.983 419.741 502.957 423.031 487.302 425.669C476.604 427.481 467.355 429.032 461.399 429.032C457.911 429.032 455.776 428.495 454.894 427.408C453.718 425.959 454.6 423.22 457.5 419.306C471.039 401.015 498.392 357.418 496.491 339.373C495.002 325.14 485.754 310.429 476.8 296.211C463.848 275.615 450.466 254.338 460.204 233.989C471.333 210.784 520.337 169.303 555.194 165.796C557.232 165.593 559.426 165.491 561.718 165.491C584.408 165.491 617.58 175.492 652.163 189.971V188.884C617.56 174.434 584.408 164.477 561.718 164.477C559.367 164.477 557.114 164.578 555.017 164.795C519.71 168.361 470.138 210.233 458.911 233.655C448.977 254.382 462.496 275.861 475.546 296.645C484.441 310.777 493.631 325.401 495.1 339.46C496.785 355.548 472.94 396.319 456.285 418.828C453.052 423.205 452.21 426.104 453.699 427.945C454.835 429.38 457.363 430.061 461.379 430.061C467.493 430.061 476.8 428.495 487.576 426.669C503.173 424.031 522.59 420.756 540.969 420.756C559.348 420.756 573.965 424.118 584.447 431.032C593.676 437.279 598.457 446.308 603.1 455.034C608.567 465.353 613.74 475.108 625.633 480.717L625.653 480.746Z" fill="white"/>
<path d="M614.229 546.923C609.057 555.649 604.158 563.896 597.967 571.041C561.856 612.595 521.591 619.595 478.955 627.001C475.702 627.567 472.293 628.103 469.001 628.625C454.796 630.857 440.12 633.176 428.149 638.915C424.406 640.713 421.545 642.481 419.547 644.235H420.82C422.721 642.698 425.327 641.133 428.678 639.524C440.492 633.857 455.09 631.553 469.197 629.335C472.508 628.813 475.918 628.277 479.17 627.712C521.982 620.262 562.443 613.232 598.77 571.432C605.02 564.243 609.919 555.982 615.131 547.199C623.38 533.285 632.745 517.53 645.658 512.254C647.95 511.616 650.125 511.051 652.221 510.558V509.805C650.007 510.326 647.695 510.921 645.266 511.602C631.981 517.008 622.557 532.893 614.229 546.923Z" fill="white"/>
<path d="M410.533 628.496C433.634 620.872 454.521 617.249 474.741 613.727C515.339 606.668 550.392 600.566 582.467 563.665C587.875 557.447 592.48 549.678 597.358 541.446C607.547 524.256 618.088 506.487 637.663 499.153C642.933 497.646 647.734 496.472 652.221 495.602V494.559C647.557 495.457 642.541 496.675 637.035 498.255C617.05 505.748 606.411 523.691 596.104 541.04C591.245 549.229 586.66 556.969 581.311 563.114C549.511 599.682 514.712 605.74 474.408 612.741C454.148 616.263 433.183 619.915 409.965 627.568C394.858 632.554 384.767 638.323 380.574 644.222H382.103C386.315 638.699 396.073 633.264 410.513 628.496H410.533Z" fill="white"/>
<path d="M415.059 593.827C411.435 585.333 395.525 578.985 367.819 574.97C349.558 572.332 330.905 570.984 312.369 570.984C285.114 570.984 257.527 573.869 230.35 579.55C226.667 580.318 222.983 581.159 219.378 582.043C172.49 593.551 145.431 612.741 133.283 644.222H134.714C146.803 613.263 173.568 594.363 219.809 583.014C223.394 582.13 227.078 581.304 230.722 580.536C257.762 574.883 285.232 572.013 312.35 572.013C330.807 572.013 349.362 573.347 367.545 575.985C394.741 579.927 410.279 586.029 413.747 594.145C416.411 600.363 412.003 607.944 400.658 616.698C388.922 625.742 377.067 634.888 366.408 644.236H368.211C378.654 635.134 390.195 626.22 401.638 617.408C413.355 608.378 417.861 600.45 415.04 593.856L415.059 593.827Z" fill="white"/>
<path d="M306.354 513.198C307.157 513.531 308.019 513.691 308.921 513.691C312.408 513.691 315.818 511.169 318.855 508.951C320.598 507.661 322.264 506.444 323.616 505.965C325.379 505.342 327.025 505.038 328.651 505.038C331.767 505.038 334.412 506.139 337.469 507.415C338.566 507.864 339.702 508.342 340.917 508.792C343.837 509.864 346.697 510.372 349.656 510.372C352.614 510.372 355.377 509.864 358.297 509.343C361.334 508.792 364.469 508.227 368.133 508.169H368.603C376.049 508.169 382.867 511.024 389.47 513.778C396.034 516.517 402.813 519.358 410.2 519.358C413.747 519.358 417.156 518.72 420.604 517.43C423.367 516.387 425.483 515.111 427.345 513.966C430.382 512.111 433.007 510.517 437.435 510.517C438.729 510.517 440.12 510.647 441.668 510.922C454.247 513.125 459.792 521.677 465.141 529.953C467.649 533.837 470.235 537.837 473.507 541.04C480.071 547.461 488.536 550.998 497.353 550.998H497.803C506.64 550.882 515.124 547.273 521.708 540.852C530.623 532.141 546.827 503.748 540.106 489.616C538.127 485.442 534.306 482.804 528.781 481.775C526.822 481.413 525.019 481.225 523.236 481.225C517.515 481.225 513.224 483.123 508.266 485.312C507.15 485.805 505.994 486.312 504.779 486.819C494.727 491.022 484.774 491.892 474.213 492.82C470.078 493.182 465.787 493.559 461.457 494.139C456.637 494.791 452.287 496.037 448.094 497.24C442.569 498.82 437.357 500.313 431.616 500.313C427.737 500.313 423.955 499.617 420.036 498.197C411.964 495.255 403.166 492.544 393.448 492.544C390.234 492.544 387.06 492.82 383.788 493.399C382.299 493.66 380.829 493.936 379.399 494.211C373.776 495.269 368.466 496.269 363.078 496.269C358.708 496.269 354.593 495.602 350.518 494.211L348.794 493.617C341.387 491.08 333.726 488.472 325.908 488.472C321.578 488.472 317.601 489.254 313.702 490.848C308.803 492.863 302.239 501.328 302.239 507.226C302.239 510.009 303.689 512.067 306.393 513.169L306.354 513.198ZM314.133 491.501C317.875 489.964 321.715 489.211 325.869 489.211C333.491 489.211 341.035 491.791 348.343 494.298L350.067 494.892C354.26 496.313 358.512 497.008 363.038 497.008C368.544 497.008 373.913 495.994 379.595 494.921C381.025 494.646 382.475 494.37 383.964 494.11C387.158 493.544 390.234 493.269 393.389 493.269C402.911 493.269 411.591 495.95 419.546 498.849C423.602 500.327 427.521 501.038 431.557 501.038C437.475 501.038 442.784 499.516 448.388 497.907C452.542 496.718 456.833 495.486 461.575 494.834C465.885 494.255 470.137 493.878 474.271 493.515C484.911 492.588 494.982 491.704 505.19 487.428C506.405 486.921 507.581 486.399 508.698 485.906C513.537 483.775 517.711 481.92 523.158 481.92C524.843 481.92 526.586 482.094 528.448 482.442C533.64 483.413 537.226 485.892 539.087 489.819C545.69 503.719 529.643 531.764 520.826 540.374C514.438 546.606 506.229 550.114 497.686 550.23H497.255C488.751 550.23 480.561 546.795 474.193 540.562C470.98 537.417 468.531 533.62 465.925 529.605C460.478 521.17 454.835 512.459 441.785 510.183C440.159 509.893 438.709 509.763 437.337 509.763C432.557 509.763 429.813 511.444 426.62 513.372C424.7 514.531 422.74 515.734 420.056 516.749C416.745 517.995 413.492 518.604 410.102 518.604C402.97 518.604 396.602 515.937 389.862 513.111C383.161 510.299 376.225 507.4 368.525 507.4H368.035C364.253 507.458 361.079 508.053 357.983 508.603C355.122 509.125 352.419 509.618 349.578 509.618C346.736 509.618 344.091 509.14 341.27 508.111C340.075 507.676 338.958 507.212 337.88 506.763C334.823 505.487 331.943 504.299 328.593 504.299C326.81 504.299 325.027 504.632 323.126 505.299C321.617 505.835 319.913 507.082 318.11 508.415C315.23 510.531 311.958 512.937 308.881 512.937C308.157 512.937 307.471 512.807 306.805 512.531C304.395 511.546 303.16 509.763 303.16 507.212C303.16 501.226 309.979 493.153 314.113 491.457L314.133 491.501Z" fill="white"/>
<path d="M179.975 564.433C181.229 564.679 183.483 564.795 186.343 564.795C192.3 564.795 214.421 564.143 248.925 555.707C277.767 548.663 311.508 544.779 343.896 544.779C397.23 544.779 432.655 550.693 478.289 582.999C481.522 585.289 485.871 586.449 491.181 586.449C511.01 586.449 541.008 570.477 559.465 550.084C573.886 534.155 594.851 501.631 573.2 462.744C563.874 446.004 552.176 443.699 540.93 443.699C527.018 443.699 509.619 447.845 489.457 452.656C462.3 459.135 431.499 466.469 397.367 466.469C370.151 466.469 345.17 461.831 320.991 452.294C244.556 422.147 243.518 365.969 249.396 326.343C251.218 314.067 248.632 304.356 242.146 299.008C238.247 295.79 233.015 294.152 226.628 294.152C212.109 294.152 193.809 302.921 186.931 319.69C180.72 334.836 198.374 351.345 218.81 370.462C244.928 394.884 277.434 425.278 271.086 466.005C269.264 477.673 265.071 488.76 258.585 498.964C248.259 515.212 234.622 528.995 218.026 539.938C207.073 547.156 196.081 552.214 188.068 555.896C180.759 559.258 176.351 561.273 176.664 562.824C176.801 563.519 177.859 564.041 179.975 564.433ZM188.381 556.273C196.415 552.577 207.426 547.518 218.418 540.271C235.073 529.285 248.769 515.458 259.134 499.167C265.658 488.92 269.871 477.774 271.693 466.078C278.061 425.176 245.477 394.696 219.28 370.216C198.942 351.2 181.386 334.778 187.499 319.85C194.298 303.283 212.325 294.616 226.628 294.616C232.839 294.616 237.914 296.196 241.715 299.327C248.103 304.588 250.611 314.183 248.828 326.329C242.949 366.085 243.988 422.437 320.736 452.714C345.013 462.295 370.093 466.947 397.387 466.947C431.617 466.947 462.457 459.599 489.673 453.106C509.776 448.308 527.116 444.178 540.949 444.178C552 444.178 563.482 446.453 572.671 462.947C594.205 501.645 573.338 534.025 558.995 549.881C540.949 569.824 510.52 586.043 491.201 586.043C486.028 586.043 481.835 584.927 478.7 582.709C456.579 567.056 436.006 557.099 413.924 551.374C394.918 546.46 373.972 544.359 343.876 544.359C311.41 544.359 277.611 548.243 248.71 555.302C214.304 563.708 192.261 564.36 186.324 564.36C183.522 564.36 181.308 564.23 180.113 563.998C178.31 563.65 177.35 563.23 177.232 562.737C176.978 561.476 181.758 559.287 188.362 556.244L188.381 556.273Z" fill="white"/>
<path d="M226.628 304.168C216.125 304.168 204.585 312.024 200.803 319.082C198.295 323.764 200.215 331.75 205.917 340.475C211.286 348.693 218.457 355.012 223.747 356.186C224.551 356.36 225.374 356.462 226.157 356.462C227.039 356.462 227.921 356.346 228.763 356.128C235.582 354.374 235.425 351.273 235.092 344.49C234.877 340.315 234.602 334.605 235.758 326.764C237.326 316.227 235.092 308.197 232.075 305.719C231.115 304.922 229.782 304.182 226.628 304.182V304.168ZM234.779 326.677C233.603 334.576 233.897 340.33 234.112 344.519C234.445 351.316 234.583 353.867 228.43 355.447C227 355.809 225.511 355.838 224.002 355.505C218.966 354.389 212.05 348.229 206.779 340.171C201.195 331.634 199.294 323.851 201.704 319.357C205.368 312.516 216.498 304.907 226.628 304.893C229.39 304.893 230.527 305.516 231.35 306.183C234.21 308.545 236.326 316.343 234.779 326.662V326.677Z" fill="white"/>
<path d="M283.861 529.473C285.663 529.473 287.877 529.357 290.64 529.125C291.835 529.024 320.266 526.676 350.773 526.676C362.666 526.676 373.267 527.038 382.28 527.763C427.325 531.343 466.317 547.242 484.97 561.403C488.399 564.012 492.494 565.331 497.157 565.331C507.601 565.331 520.454 558.605 532.445 546.894C553.45 526.371 559.798 487.079 549.394 471.614C546.631 467.512 542.771 465.338 538.225 465.338C537.853 465.338 537.461 465.338 537.069 465.381C528.84 466.005 517.397 468.483 502.937 471.628C475.839 477.513 438.729 485.557 398.484 486.035C364.097 486.455 324.792 476.382 311.429 471.57C307.06 469.99 304.238 469.295 302.279 469.295C298.282 469.295 298.125 472.092 297.831 476.745C297.596 480.44 297.302 485.499 294.853 491.267C290.425 501.761 285.409 509.718 281.745 515.53C277.689 521.98 275.22 525.864 276.964 527.893C277.924 529.009 280.06 529.502 283.861 529.502V529.473ZM282.274 515.689C285.938 509.863 290.973 501.891 295.401 491.369C297.851 485.542 298.164 480.44 298.399 476.73C298.674 472.193 298.83 469.701 302.259 469.701C304.101 469.701 306.922 470.411 311.155 471.933C324.302 476.672 362.451 486.455 396.465 486.455C397.132 486.455 397.817 486.455 398.484 486.455C438.807 485.977 475.957 477.919 503.094 472.02C517.535 468.889 528.938 466.41 537.128 465.787C541.987 465.425 545.945 467.439 548.845 471.773C559.171 487.137 552.842 526.183 531.955 546.59C520.082 558.2 507.385 564.852 497.138 564.852C492.651 564.852 488.693 563.577 485.381 561.055C466.65 546.837 427.541 530.893 382.338 527.299C373.306 526.574 362.686 526.212 350.773 526.212C320.246 526.212 291.777 528.574 290.581 528.661C287.838 528.893 285.644 529.009 283.861 529.009C280.314 529.009 278.277 528.56 277.454 527.603C275.886 525.792 278.296 521.98 282.274 515.66V515.689Z" fill="white"/>
<path d="M240.01 546.083C241.832 546.083 244.164 545.735 246.594 545.112C274.025 538.068 305.845 534.647 343.876 534.647C391.234 534.647 438.161 537.85 491.475 576.636C493.003 577.752 495.021 578.317 497.451 578.317C512.362 578.317 539.91 557.185 548.081 544.445C548.826 543.285 549.629 542.053 550.491 540.763C560.895 524.994 578.294 498.587 560.503 466.642C553.391 453.873 546.768 453.873 540.91 453.873C529.154 453.873 512.695 457.801 493.65 462.338C465.533 469.048 433.654 476.643 397.367 476.643C366.311 476.643 341.192 472.425 315.877 462.961C311.958 461.497 308.196 459.888 304.865 458.482C298.203 455.656 292.952 453.424 289.562 453.424C286.917 453.424 285.624 454.786 285.565 457.598C285.565 458.047 285.644 458.758 285.781 459.758C289.406 487.267 275.004 512.95 242.988 536.096C237.404 540.14 235.033 543.039 235.954 544.72C236.444 545.619 237.855 546.083 240.01 546.083ZM243.4 536.401C263.993 521.516 277.493 505.37 283.508 488.397C288.348 474.759 286.956 464.207 286.369 459.714C286.231 458.729 286.153 458.018 286.153 457.598C286.212 454.25 288.132 453.859 289.562 453.859C292.795 453.859 298.262 456.178 304.571 458.859C307.902 460.279 311.684 461.874 315.622 463.352C341.015 472.846 366.213 477.092 397.367 477.092C433.752 477.092 465.67 469.483 493.846 462.758C512.852 458.221 529.271 454.308 540.929 454.308C546.592 454.308 553.019 454.308 559.974 466.802C577.648 498.558 560.327 524.849 549.962 540.561C549.1 541.865 548.297 543.082 547.552 544.256C539.44 556.91 512.166 577.882 497.451 577.882C495.178 577.882 493.297 577.36 491.886 576.331C467.12 558.315 441.472 546.517 413.512 540.256C388.589 534.676 365.449 534.212 343.876 534.212C305.786 534.212 273.907 537.647 246.398 544.706C244.027 545.314 241.754 545.648 240.01 545.648C238.678 545.648 236.993 545.459 236.503 544.561C236.033 543.72 236.307 541.532 243.4 536.415V536.401Z" fill="white"/>
<path d="M134.714 -8H133.283C130.266 -0.187847 128.15 8.36349 126.915 17.77C124.74 34.119 122.82 55.5263 127.346 76.151C130.638 91.1955 137.261 97.8916 148.801 97.8916C156.169 97.8916 164.731 95.2538 174.665 92.1811C181.562 90.0505 188.694 87.8619 196.296 86.2676C197.021 86.1082 197.746 85.9632 198.491 85.8183C220.181 81.5137 244.634 80.9049 270.576 84.0211C277.532 84.8617 284.585 86.2966 291.424 87.688C301.377 89.7171 311.664 91.8187 322.107 92.1666C327.77 92.355 331.806 91.9202 334.647 90.8766C342.974 87.804 338.919 80.1367 334.647 72.0202C332.12 67.2228 329.494 62.2514 329.063 57.8018C326.77 34.1479 344.64 12.5957 368.25 -8H366.448C343.014 12.5522 325.399 34.119 327.711 57.8743C328.162 62.4833 330.807 67.5271 333.393 72.3971C337.625 80.4121 341.27 87.3257 334.059 89.978C331.453 90.9346 327.515 91.3404 322.186 91.1665C311.899 90.8332 301.691 88.7461 291.815 86.7314C284.958 85.3255 277.865 83.8761 270.831 83.0355C244.693 79.9048 220.044 80.5281 198.177 84.8617C197.433 85.0067 196.708 85.1516 195.963 85.311C188.263 86.9198 181.092 89.1374 174.175 91.268C164.398 94.2827 155.933 96.8916 148.841 96.8916C138.103 96.8916 131.892 90.4418 128.738 75.9915C124.231 55.4683 126.151 34.1479 128.306 17.8714C129.56 8.42146 131.696 -0.158859 134.753 -8L134.714 -8Z" fill="white"/>
<path d="M117.138 397.593C115.825 396.709 114.65 396.289 113.553 396.289C110.809 396.289 108.889 398.869 105.989 402.768C102.972 406.812 98.8573 412.348 91.7252 417.957L89.6287 419.595C81.4581 426.001 77.7157 428.929 78.6366 430.509C79.0481 431.219 80.3217 431.538 82.7317 431.538C84.789 431.538 87.8064 431.321 92.842 430.799C94.9189 430.581 97.0351 430.48 99.1316 430.48C116.119 430.48 130.285 437.524 140.631 442.669C146.685 445.684 151.466 448.061 154.895 448.061C156.325 448.061 157.501 447.641 158.383 446.8C169.238 436.495 131.285 407.087 117.138 397.593ZM157.619 446.351C156.933 447.017 156.032 447.336 154.895 447.336C151.76 447.336 147.097 445.017 141.18 442.06C130.736 436.857 116.433 429.741 99.1316 429.741C96.9959 429.741 94.821 429.857 92.7049 430.074C87.7281 430.596 84.7303 430.813 82.7317 430.813C80.8507 430.813 79.7731 430.61 79.5379 430.219C78.8718 429.089 83.4371 425.509 90.3536 420.088L92.4501 418.45C99.6606 412.783 103.834 407.188 106.851 403.116C109.595 399.434 111.397 397.014 113.572 397.014C114.415 397.014 115.375 397.376 116.492 398.13C134.067 409.913 167.239 437.22 157.619 446.351Z" fill="white"/>
<path d="M117.413 409.682C110.555 409.682 101.718 417.682 101.679 421.48C101.679 423.03 102.972 423.944 105.265 423.973C115.375 424.103 126.053 428.842 133.852 432.306C138.476 434.35 141.807 435.843 143.786 435.843C144.413 435.843 144.922 435.698 145.275 435.408C145.725 435.046 145.902 434.495 145.823 433.727C145.098 426.755 127.209 412.798 119.96 410.116C119.196 409.827 118.333 409.696 117.432 409.696L117.413 409.682ZM144.452 433.785C144.511 434.394 144.354 434.625 144.256 434.698C144.217 434.727 144.119 434.814 143.766 434.814C142.159 434.814 138.632 433.249 134.537 431.422C126.602 427.9 115.747 423.088 105.284 422.958C103.736 422.943 103.05 422.48 103.05 421.48C103.09 418.088 111.299 410.682 117.413 410.682C118.118 410.682 118.765 410.783 119.333 411.001C127.151 413.885 143.786 427.466 144.452 433.77V433.785Z" fill="white"/>
<path d="M93.1756 278.223C94.8606 278.223 96.2126 276.455 97.5254 272.498C102.443 257.7 118.687 238.119 143.923 227.712C169.454 217.175 186.461 214.436 195.611 212.972C200.157 212.247 202.43 211.87 202.978 210.986C203.194 210.653 203.116 210.247 202.782 209.783C201.019 207.406 169.395 194.318 123.918 191.593L121.998 191.477C117.903 191.231 114.356 191.014 110.967 191.014C99.0928 191.014 89.5312 193.463 67.1944 207.421C63.6675 209.624 60.0623 211.667 56.5746 213.653C45.7785 219.784 36.4519 225.06 37.0594 231.075C37.5296 235.684 43.7016 240.264 56.4767 245.467C70.6233 251.235 79.2445 262.685 84.9462 270.251C88.5711 275.049 90.9419 278.223 93.2148 278.223H93.1756ZM56.7118 245.09C44.2894 240.032 38.039 235.437 37.5884 231.046C37.0006 225.277 46.2096 220.059 56.8881 214.015C60.3758 212.03 64.0006 209.986 67.5275 207.768C89.7075 193.898 99.1908 191.463 110.908 191.463C114.278 191.463 117.805 191.68 121.9 191.927L123.82 192.043C168.258 194.695 200.549 207.74 202.214 210.001C202.547 210.464 202.489 210.682 202.391 210.812C201.96 211.493 199.51 211.899 195.435 212.551C186.265 214.03 169.199 216.769 143.59 227.335C118.216 237.814 101.856 257.526 96.918 272.411C95.7031 276.034 94.4688 277.803 93.1364 277.803C91.2162 277.803 88.6494 274.382 85.3773 270.063C79.6364 262.454 70.976 250.931 56.6726 245.105L56.7118 245.09Z" fill="white"/>
<path d="M96.8786 303.109C98.5833 303.109 99.7589 301.602 100.582 298.355C105.676 278.397 116.707 250.134 153.563 235.061C164.947 230.394 177.82 226.712 192.888 223.77C195.925 223.176 199.157 221.567 202.312 220.002C206.368 217.972 210.581 215.885 214.46 215.885C214.911 215.885 215.361 215.914 215.773 215.972C217.948 216.262 219.574 217.19 221.142 218.088C222.905 219.103 224.57 220.06 226.882 220.06C227.745 220.06 228.646 219.929 229.606 219.639C231.252 219.161 232.114 218.219 232.937 217.306C234.113 216.016 235.21 214.798 238.541 215.016C241.852 215.219 243.635 217.088 245.516 219.06C246.829 220.436 248.2 221.871 250.14 222.668C251.551 223.248 254.098 223.871 256.351 223.871C257.919 223.871 259.036 223.567 259.663 222.958C260.25 222.379 260.368 221.552 259.976 220.523C258.683 217.103 248.788 213.914 242.224 211.798C240.285 211.175 238.619 210.639 237.541 210.218C227.784 206.392 218.046 203.16 209.816 200.493C175.096 189.26 143.433 182.405 113.043 179.535C109.615 179.216 106.656 179.057 103.972 179.057C89.002 179.057 77.4026 183.898 54.3212 199.783C48.6587 203.682 42.8197 207.03 37.1964 210.262C24.5781 217.509 14.6049 223.234 14.84 230.437C15.0359 236.119 21.6978 242.177 35.8444 249.496C58.6122 261.28 73.7189 279.18 83.7313 291.021C89.9033 298.312 93.9592 303.138 96.9178 303.138L96.8786 303.109ZM36.1383 249.105C22.1681 241.873 15.565 235.916 15.3886 230.379C15.1535 223.393 25.0287 217.726 37.5295 210.552C43.1724 207.305 49.0113 203.957 54.6935 200.044C77.6572 184.245 89.1587 179.433 103.952 179.433C106.617 179.433 109.556 179.593 112.945 179.912C143.276 182.767 174.881 189.623 209.542 200.841C217.771 203.508 227.49 206.74 237.228 210.552C238.325 210.986 240.01 211.523 241.95 212.146C248.396 214.219 258.154 217.364 259.369 220.581C259.702 221.48 259.643 222.176 259.153 222.639C258.526 223.248 257.253 223.379 256.312 223.379C254.274 223.379 251.786 222.799 250.395 222.219C248.573 221.48 247.26 220.089 245.967 218.741C244.086 216.769 242.146 214.74 238.56 214.508C234.877 214.262 233.642 215.668 232.427 217.001C231.605 217.9 230.84 218.741 229.371 219.175C228.47 219.436 227.666 219.567 226.863 219.567C224.766 219.567 223.16 218.654 221.475 217.697C219.848 216.769 218.163 215.798 215.851 215.509C215.401 215.451 214.911 215.422 214.441 215.422C210.385 215.422 206.113 217.552 201.979 219.61C198.746 221.219 195.67 222.755 192.75 223.321C177.624 226.263 164.731 229.973 153.289 234.655C116.218 249.815 105.128 278.209 100.014 298.254C99.2495 301.21 98.2306 302.66 96.8786 302.66C94.2335 302.66 90.0208 297.659 84.1819 290.746C74.15 278.875 59.0041 260.932 36.1383 249.091V249.105Z" fill="white"/>
<path d="M169.258 484.962C182.66 483.832 195.278 477.019 201.43 467.613C207.034 459.018 210.071 444.437 192.672 423.798C185.207 414.928 177.056 405.985 169.179 397.333C146.647 372.592 125.368 349.213 116.57 325.762C106.636 299.239 114.611 277.353 141.689 256.902C165.143 239.191 196.121 229.031 226.706 229.031C249.69 229.031 270.204 235.017 284.449 245.872C300.104 257.801 307.942 275.266 307.079 296.354C306.884 301.253 306.57 306.312 306.237 311.674C305.061 330.719 303.709 352.3 307.863 370.258C312.644 390.912 323.989 403.666 342.524 409.261C352.458 412.261 361.863 413.769 370.504 413.769C386.199 413.769 399.561 408.696 409.143 399.115C425.425 382.81 429.324 354.895 418.861 329.647C396.387 275.469 342.348 243.133 262.465 208.493C201.783 182.187 150.526 174.07 104.187 169.215C100.739 168.852 97.447 168.664 94.41 168.664C75.0515 168.664 65.8424 175.954 54.1842 185.187C49.6973 188.738 45.0732 192.39 39.3126 196.144C32.69 200.449 26.9295 203.072 21.8351 205.391C13.6646 209.102 6.63044 212.305 -1.14824 220.885C-16.5488 237.915 4.06367 248.365 25.8714 259.424C37.3925 265.265 49.325 271.309 55.7125 278.469C95.8403 323.443 79.656 371.418 51.108 401.318C42.9571 409.87 31.0441 417.943 18.4258 426.48C3.00561 436.93 -12.9436 447.728 -22.0547 459.801C-25.9734 464.99 -27.0902 468.512 -25.464 470.57C-24.2687 472.077 -21.6236 472.802 -17.411 472.802C-9.88701 472.802 2.06512 470.497 15.9178 467.816C35.3351 464.077 59.4941 459.41 80.8512 459.41C92.1567 459.41 101.856 460.743 109.673 463.366C117.452 465.99 124.036 469.773 130.404 473.44C140.886 479.469 150.761 485.151 164.751 485.151C166.221 485.151 167.729 485.093 169.238 484.962H169.258ZM109.928 462.975C101.934 460.279 92.431 458.975 80.8708 458.975C59.4549 458.975 35.2372 463.642 15.8003 467.396C1.98675 470.062 -9.9262 472.352 -17.3914 472.367C-21.3885 472.367 -23.8573 471.7 -24.9545 470.338C-26.4632 468.425 -25.3464 465.048 -21.5452 460.004C-12.4734 448.003 3.43667 437.22 18.8373 426.798C31.4752 418.233 43.4077 410.16 51.5979 401.565C68.3308 384.042 78.206 364.055 80.1458 343.764C82.3795 320.573 74.3265 298.514 56.2024 278.223C49.7561 271.005 37.7843 264.932 26.2045 259.062C4.63189 248.119 -15.7455 237.799 -0.658398 221.117C7.02231 212.609 14.0368 209.435 22.129 205.754C27.243 203.435 33.0231 200.797 39.6849 196.463C45.4651 192.709 50.1087 189.028 54.5957 185.477C66.156 176.331 75.3062 169.099 94.3904 169.099C97.3882 169.099 100.66 169.287 104.089 169.635C150.369 174.491 201.568 182.593 262.151 208.855C341.917 243.423 395.858 275.715 418.273 329.748C428.697 354.88 424.837 382.636 408.653 398.84C399.189 408.304 386.003 413.319 370.484 413.319C361.922 413.319 352.595 411.812 342.74 408.841C324.4 403.304 313.173 390.665 308.431 370.171C304.278 352.257 305.629 330.69 306.805 311.674C307.138 306.312 307.452 301.253 307.648 296.354C308.51 275.135 300.633 257.569 284.86 245.554C270.498 234.611 249.846 228.581 226.706 228.581C195.964 228.581 164.81 238.785 141.258 256.583C126.877 267.454 118.001 278.657 114.102 290.861C110.634 301.761 111.241 313.196 115.983 325.864C124.8 349.387 146.098 372.78 168.67 397.565C176.547 406.217 184.698 415.16 192.163 424.016C209.425 444.495 206.427 458.917 200.882 467.41C194.827 476.686 182.385 483.411 169.179 484.513C167.69 484.643 166.201 484.701 164.751 484.701C150.977 484.701 141.16 479.049 130.776 473.077C124.388 469.396 117.766 465.598 109.928 462.946V462.975Z" fill="white"/>
<path d="M182.11 466.991C187.244 464.222 190.261 460.352 191.045 455.497C193.377 441.25 176.291 420.451 160.949 406.986C141.806 390.174 122.8 372.23 113.493 354.867C113.043 354.011 112.337 351.591 111.456 348.533C108.458 338.213 103.461 320.951 96.2118 320.951C95.5457 320.951 94.8599 321.096 94.1937 321.4C91.1763 322.719 90.2946 325.328 91.4702 329.343C92.4303 332.633 94.6443 336.431 96.6037 339.779C98.6806 343.315 100.464 346.373 100.424 348.113C100.346 352.591 97.5246 354.562 94.8011 356.475C92.6654 357.968 90.4709 359.505 89.6676 362.186C88.6487 365.636 90.5689 368.23 92.4303 370.737C94.1545 373.056 95.918 375.448 95.3693 378.535C94.3309 384.202 70.0739 404.624 48.6972 422.654C30.9846 437.568 15.7015 450.453 15.9563 452.917C15.9563 453.106 16.0738 453.25 16.2306 453.352C17.7001 454.251 20.3452 454.685 24.3619 454.685C30.6907 454.685 39.4883 453.642 49.6965 452.424C62.0601 450.96 76.0696 449.294 88.2372 449.294C97.7402 449.294 104.853 450.294 109.967 452.352C112.749 453.468 115.864 454.801 119.136 456.207C133.753 462.498 151.936 470.31 167.337 470.31C173.039 470.31 178.015 469.194 182.091 467.005L182.11 466.991ZM110.28 451.946C105.068 449.859 97.8577 448.83 88.2764 448.83C76.0696 448.83 62.0405 450.497 49.6378 451.961C39.4687 453.164 30.6711 454.207 24.4011 454.207C20.5412 454.207 17.994 453.801 16.6421 452.975C16.6421 452.975 16.5833 452.932 16.5637 452.845C16.3286 450.555 32.2778 437.133 49.1479 422.9C70.603 404.827 94.8991 384.347 95.9767 378.564C96.5645 375.332 94.7423 372.882 92.9789 370.505C91.0783 367.955 89.2953 365.549 90.275 362.258C91.0195 359.708 93.0769 358.287 95.2322 356.78C98.0536 354.809 100.973 352.765 101.051 348.113C101.091 346.286 99.2685 343.185 97.1719 339.59C95.2322 336.257 93.0181 332.488 92.058 329.242C90.9412 325.43 91.7445 322.98 94.5072 321.763C95.0754 321.516 95.6632 321.386 96.2315 321.386C103.011 321.386 108.144 339.097 110.887 348.62C111.808 351.823 112.475 354.127 112.964 355.026C122.291 372.448 141.336 390.42 160.518 407.262C175.782 420.668 192.789 441.322 190.477 455.439C189.693 460.179 186.774 463.947 181.777 466.643C177.8 468.788 172.96 469.86 167.376 469.86C152.152 469.86 134.028 462.077 119.47 455.816C116.178 454.41 113.082 453.077 110.28 451.946Z" fill="white"/>
<path d="M175.409 448.801C177.153 436.858 159.872 418.132 151.231 410.929C136.32 398.508 125.916 387.913 119.038 380.912C112.22 373.97 108.458 370.129 106.028 370.129C104.363 370.129 103.442 371.723 102.874 375.651C98.6023 405.16 72.7975 421.147 57.3773 430.684C50.6175 434.873 46.1697 437.626 45.9738 439.902C45.915 440.554 46.2285 441.163 46.9143 441.685C48.325 442.786 50.5391 443.308 53.9288 443.308C57.7299 443.308 62.5304 442.656 68.095 441.902C75.3055 440.917 83.4956 439.815 91.8621 439.815C103.266 439.815 112.455 441.917 119.979 446.236C130.579 452.323 146.254 458.831 158.539 458.831C162.967 458.831 166.749 458.005 169.806 456.352C173.039 454.613 174.939 452.062 175.409 448.787V448.801ZM158.539 458.411C146.411 458.411 130.873 451.961 120.351 445.917C112.71 441.525 103.403 439.395 91.8817 439.395C83.4564 439.395 75.2467 440.511 67.997 441.496C62.4716 442.25 57.6908 442.888 53.9484 442.888C50.735 442.888 48.6385 442.409 47.3649 441.395C46.7967 440.946 46.542 440.467 46.5812 439.931C46.7575 437.844 51.3816 434.974 57.7691 431.017C73.2481 421.422 99.1705 405.378 103.462 375.695C103.971 372.144 104.774 370.564 106.028 370.564C108.164 370.564 112.083 374.549 118.568 381.159C125.446 388.174 135.869 398.769 150.78 411.204C159.362 418.364 176.546 436.945 174.822 448.743C174.351 451.888 172.549 454.338 169.453 456.005C166.494 457.599 162.83 458.396 158.52 458.396L158.539 458.411Z" fill="white"/>
<path d="M342.817 329.545C340.799 352.213 349.597 367.823 358.512 374.853C362.587 378.07 367.055 379.853 371.111 379.853C376.812 379.853 381.103 376.534 383.18 370.505C396.563 331.705 350.988 290.803 345.404 287.383C343.797 286.397 342.68 286.267 341.955 286.861C340.643 287.919 341.054 291.383 341.799 297.659C342.68 305.094 343.993 316.327 342.817 329.545ZM342.68 287.354C342.778 287.267 342.876 287.238 343.033 287.238C343.307 287.238 343.836 287.368 344.796 287.948C350.341 291.339 395.524 331.879 382.259 370.331C380.3 375.998 376.362 379.128 371.13 379.128C367.368 379.128 363.136 377.433 359.257 374.36C350.479 367.432 341.818 352.025 343.817 329.589C344.992 316.312 343.68 305.051 342.798 297.601C342.151 292.122 341.681 288.18 342.7 287.354H342.68Z" fill="white"/>
<path d="M581.781 74.659C566.459 74.659 549.491 76.8041 531.504 79.0651C510.029 81.7755 487.83 84.5728 463.632 84.5728C461.849 84.5728 460.085 84.5583 458.42 84.5293C456.97 84.5003 455.559 84.4713 454.148 84.4423C450.484 84.3699 447.036 84.2974 443.705 84.2974C422.857 84.2974 409.945 87.4425 401.441 104.009C396.073 114.488 389.96 126.358 375.343 134.026C371.208 136.2 367.074 138.04 363.41 139.678C354.946 143.461 348.264 146.447 348.01 150.577C347.774 154.375 352.967 158.94 364.821 165.376C376.205 171.55 385.551 174.55 393.428 174.55C394.133 174.55 394.858 174.521 395.544 174.478C406.986 173.695 414.667 166.695 424.386 157.839C428.794 153.81 433.81 149.259 439.688 144.91C465.14 126.083 496.412 112.357 530.113 105.212C544.338 102.197 558.387 100.661 571.887 100.661C605.235 100.661 630.942 109.575 652.221 119.894V119.372C630.942 109.096 605.215 100.226 571.887 100.226C558.328 100.226 544.22 101.762 529.956 104.792C496.157 111.966 464.788 125.735 439.277 144.606C433.379 148.969 428.363 153.534 423.935 157.564C414.314 166.332 406.693 173.275 395.505 174.043C394.819 174.086 394.133 174.115 393.447 174.115C385.708 174.115 376.46 171.144 365.174 165.028C353.496 158.68 348.382 154.23 348.597 150.606C348.833 146.708 355.396 143.78 363.724 140.055C367.388 138.417 371.542 136.562 375.695 134.388C390.469 126.648 396.602 114.705 402.01 104.168C410.396 87.8339 423.132 84.7322 443.725 84.7322C447.055 84.7322 450.504 84.8047 454.148 84.8771C455.54 84.9061 456.97 84.9351 458.42 84.9641C460.105 84.9931 461.849 85.0076 463.651 85.0076C487.889 85.0076 510.127 82.1958 531.622 79.4855C549.569 77.2244 566.538 75.0793 581.801 75.0793C590.657 75.0793 598.377 75.804 605.451 77.2969C620.636 80.5 636.193 85.7613 652.24 91.9066V91.4138C636.252 85.312 620.753 80.0797 605.607 76.8766C598.495 75.3692 590.697 74.6445 581.801 74.6445L581.781 74.659Z" fill="white"/>
<path d="M327.652 328.242C325.379 350.229 331.258 368.027 344.189 378.361C350.949 383.768 359.257 386.739 367.584 386.739C379.458 386.739 388.941 380.637 391.782 371.202C400.031 343.605 387.256 318.792 375.108 302.82C360.805 284.065 342.524 270.789 333.707 266.44C330.493 264.861 328.22 263.875 326.849 263.875C326.339 263.875 325.948 264.005 325.654 264.252C324.517 265.194 324.988 267.89 325.908 273.223C327.535 282.688 330.572 300.283 327.672 328.242H327.652ZM326.065 264.527C326.242 264.368 326.496 264.295 326.829 264.295C328.044 264.295 330.337 265.295 333.374 266.788C353.261 276.601 406.086 321.299 391.194 371.086C388.432 380.318 379.164 386.29 367.584 386.29C359.414 386.29 351.263 383.362 344.62 378.057C331.806 367.824 325.987 350.142 328.24 328.271C331.14 300.269 328.103 282.63 326.457 273.151C325.614 268.267 325.105 265.324 326.065 264.513V264.527Z" fill="white"/>
<path d="M316.386 329.662C314.133 357.026 321.206 378.651 336.332 390.535C344.15 396.681 353.634 399.927 363.783 399.927C383.181 399.927 399.6 388.318 404.675 371.041C412.14 345.561 405.713 320.472 385.591 296.471C365.194 272.165 336.979 256.453 321.97 249.235C314.329 245.569 311.056 244.032 309.802 245.148C308.764 246.076 309.45 248.714 310.782 253.96C313.682 265.338 319.737 289.006 316.386 329.633V329.662ZM310.253 245.453C310.41 245.308 310.625 245.25 310.959 245.25C312.546 245.25 315.975 246.902 321.657 249.627C371.66 273.629 419.566 318.124 404.087 370.954C399.091 388.028 382.887 399.493 363.783 399.493C353.81 399.493 344.464 396.289 336.763 390.231C321.755 378.433 314.74 356.924 316.974 329.676C320.324 288.992 314.27 265.295 311.35 253.902C310.116 249.105 309.391 246.221 310.234 245.453H310.253Z" fill="white"/>
<path d="M90.9022 238.727C96.4472 238.727 100.425 234.77 104.677 228.828C112.103 218.45 127.621 213.421 135.948 210.725C140.161 209.363 141.748 208.855 141.552 207.986C141.375 207.261 140.298 206.957 134.537 206.667C117.177 205.797 78.2251 218.045 73.7382 227.263C72.6997 229.393 73.4639 231.335 75.9719 232.857C82.6533 236.959 87.1402 238.698 90.9218 238.698L90.9022 238.727ZM75.0314 227.625C79.1264 219.204 115.336 207.652 132.676 207.652C133.283 207.652 133.871 207.652 134.439 207.696C137.829 207.87 139.338 208.044 139.945 208.189C139.22 208.566 137.28 209.189 135.399 209.798C126.915 212.537 111.123 217.653 103.462 228.35C98.6417 235.075 95.1149 237.698 90.9022 237.698C87.4734 237.698 83.2607 236.017 76.834 232.089C74.7767 230.828 74.1693 229.364 75.0314 227.61V227.625Z" fill="white"/>
<path d="M107.949 238.205C121.292 220.218 145.686 213.942 165.437 210.478C167.337 210.145 167.514 209.42 167.455 209.029C166.985 206.101 148.488 200.492 120.881 200.492C117.765 200.492 114.572 200.565 111.417 200.71C98.7987 201.275 69.0556 214.29 58.377 223.929C55.5947 226.436 54.3407 228.509 54.6346 230.117C55.3792 234.118 60.1797 235.886 65.7639 237.944C71.6615 240.118 78.343 242.582 81.6151 248.322C83.5157 251.67 86.0041 253.366 89.0215 253.366C94.1354 253.366 100.523 248.264 107.969 238.22L107.949 238.205ZM82.4968 248.032C79.1071 242.046 72.2494 239.509 66.1949 237.277C60.8654 235.321 56.2609 233.625 55.5947 230.002C55.34 228.625 56.5548 226.682 59.1216 224.378C69.6826 214.856 99.0535 201.985 111.476 201.434C114.63 201.289 117.785 201.217 120.881 201.217C148.018 201.217 166.103 206.768 166.475 209.116C166.534 209.493 165.711 209.696 165.221 209.783C145.275 213.276 120.646 219.624 107.106 237.857C95.8597 253.003 87.4148 256.67 82.5164 248.032H82.4968Z" fill="white"/>
<path d="M365.742 362.489C366.781 362.489 367.682 361.953 368.446 360.909C372.267 355.619 372.189 337.299 362.059 326.153C360.746 324.704 358.845 324.892 357.396 326.719C353.594 331.56 351.988 346.952 362.353 360.388C363.43 361.779 364.567 362.489 365.723 362.489H365.742ZM358.591 327.226C359.1 326.588 359.629 326.197 360.041 326.197C360.393 326.197 360.746 326.516 360.922 326.719C370.602 337.386 370.817 355.46 367.232 360.431C366.742 361.098 366.213 361.475 365.742 361.475C365.135 361.475 364.332 360.895 363.548 359.88C353.594 346.966 355.025 331.762 358.591 327.226Z" fill="white"/>
<path d="M207.484 33.4676C210.11 33.4676 213.147 33.1777 216.791 32.5834C220.397 31.9892 223.825 31.4239 226.902 31.1196C232.153 30.5978 237.228 30.3804 241.734 30.192C246.887 29.9746 251.511 28.9455 255.881 27.0613C274.122 19.1767 281.744 3.0306 284.174 -3.53509C284.762 -5.11491 285.35 -6.57879 285.918 -7.99918H285.31C284.762 -6.62227 284.194 -5.18738 283.625 -3.65104C281.215 2.87117 273.652 18.8723 255.606 26.6845C251.315 28.5397 246.789 29.5397 241.695 29.7571C237.208 29.9456 232.114 30.163 226.843 30.6848C223.727 30.9891 220.299 31.5544 216.674 32.1486C213.088 32.7429 210.09 33.0183 207.504 33.0183C203.174 33.0183 200.156 32.1921 198.275 30.4963C195.493 27.9889 195.101 23.5103 197.021 16.3939L197.335 15.2344C199.941 5.43657 204.447 -2.1147 211.521 -8.01367H210.737C203.781 -2.1002 199.353 5.42207 196.747 15.1474L196.434 16.3069C194.474 23.5683 194.905 28.1628 197.805 30.7717C199.804 32.5689 202.958 33.4531 207.484 33.4531V33.4676Z" fill="white"/>
<path d="M581.782 84.659C567.616 84.659 551.177 86.7316 533.778 88.9202C511.755 91.703 488.967 94.5728 463.633 94.5728C461.771 94.5728 459.929 94.5583 458.107 94.5293L453.797 94.4423C450.231 94.3699 446.88 94.2974 443.726 94.2974C416.275 94.2974 414.923 105.458 413.473 117.27C412.689 123.749 411.866 130.459 407.046 136.155C405.322 138.185 400.698 140.764 395.78 143.489C385.336 149.287 373.502 155.867 379.184 162.027C381.633 164.679 384.572 166.013 387.923 166.013C389.765 166.013 391.763 165.607 393.84 164.81C403.108 161.273 413.003 150.809 420.958 142.402C425.464 137.634 429.363 133.518 431.499 132.561C433.733 131.575 436.241 131.445 438.376 131.445C439.199 131.445 440.042 131.474 440.884 131.488C441.747 131.517 442.609 131.532 443.451 131.532C446.684 131.532 450.093 131.242 453.17 129.169C456.873 126.677 457.343 123.43 457.794 120.299C458.205 117.487 458.577 114.835 461.105 112.589C468.747 105.834 495.551 101.109 513.283 97.9933C518.495 97.0802 523.001 96.283 526.372 95.5729C541.792 92.2973 557.114 90.645 571.868 90.645C604.629 90.645 630.825 98.5876 652.202 108.095V107.24C630.806 97.7904 604.609 89.9203 571.868 89.9203C557.016 89.9203 541.615 91.5871 526.097 94.8772C522.766 95.5874 518.26 96.3845 513.048 97.2976C494.12 100.631 468.198 105.197 460.361 112.139C457.637 114.545 457.226 117.444 456.814 120.241C456.363 123.372 455.932 126.329 452.503 128.648C449.662 130.561 446.469 130.822 443.451 130.822C442.609 130.822 441.747 130.793 440.904 130.778C440.061 130.749 439.199 130.735 438.357 130.735C436.084 130.735 433.419 130.88 430.97 131.952C428.658 132.981 424.896 136.953 420.115 141.996C412.63 149.896 402.403 160.722 393.35 164.172C387.825 166.274 383.475 165.447 379.929 161.621C374.775 156.041 386.218 149.678 396.309 144.069C401.501 141.185 405.988 138.692 407.81 136.547C412.768 130.706 413.59 123.908 414.394 117.343C415.844 105.371 417.117 95.0221 443.667 95.0221C446.821 95.0221 450.172 95.0946 453.718 95.167L458.029 95.254C459.871 95.283 461.712 95.2975 463.574 95.2975C489.006 95.2975 511.813 92.4132 533.895 89.6304C551.255 87.4418 567.636 85.3692 581.724 85.3692C589.267 85.3692 595.753 85.9635 601.552 87.1954C617.56 90.5725 634.47 96.5874 652.163 103.53V102.704C634.587 95.8192 617.776 89.8623 601.827 86.4997C595.929 85.2533 589.346 84.6445 581.724 84.6445L581.782 84.659Z" fill="white"/>
<path d="M211.266 18.175C212.775 20.3345 216.027 21.4361 220.926 21.4361C222.199 21.4361 223.61 21.3636 225.099 21.2042C230.84 20.6389 236.209 20.407 240.97 20.2041C242.381 20.1461 243.694 19.9867 244.967 19.7258C246.378 19.4214 247.73 19.0011 249.043 18.4359C259.643 13.8558 272.163 0.362097 272.575 -7.98633H271.595C271.164 0.028739 258.702 13.421 248.553 17.8126C247.299 18.3489 246.045 18.7547 244.693 19.0301C243.478 19.2765 242.244 19.4359 240.852 19.4939C236.111 19.6968 230.723 19.9287 224.942 20.5085C218.163 21.1897 213.794 20.2766 212.109 17.8561C209.816 14.5805 212.54 8.24672 219.201 1.34767C222.826 -2.40622 227.705 -5.44991 234.171 -7.97183H232.114C226.314 -5.52238 221.807 -2.60913 218.398 0.927354C211.423 8.15976 208.738 14.6095 211.227 18.1895L211.266 18.175Z" fill="white"/>
<path d="M165.515 519.153C194.689 516.689 229.429 491.049 238.736 471.454C254.901 437.437 226.157 410.043 198.353 383.549C171.53 357.982 146.176 333.835 158.5 304.427C169.237 278.817 203.918 264.99 231.094 264.99C245.751 264.99 258.408 268.83 266.775 275.816C276.708 284.107 280.608 296.702 278.06 312.239C269.302 365.62 266.696 424.016 347.148 441.234C356.376 443.205 365.487 444.205 374.246 444.205C408.123 444.205 429.735 429.856 441.903 417.812C465.239 394.724 473.35 360.185 462.064 331.878C452.503 307.877 433.673 284.585 404.537 260.699C361.216 225.19 302.2 194.666 224.139 167.359L220.769 166.171C187.93 154.677 153.974 142.792 118.215 136.241C116.099 135.85 113.748 135.386 111.24 134.893C100.189 132.719 86.4542 130.023 74.6588 130.023C69.9367 130.023 65.8416 130.473 62.5107 131.357C57.4164 132.705 54.5557 135.285 51.7734 137.778C49.6965 139.633 47.5608 141.56 44.5042 142.937C42.5252 143.836 38.6457 144.938 34.5702 146.112C27.9671 147.996 21.1094 149.952 18.9541 151.837C14.7806 155.46 15.9366 157.634 17.0339 159.75C17.8372 161.258 18.5818 162.692 17.6021 164.823L16.8379 166.504C12.88 175.114 6.34227 180.394 -2.77531 182.346C-5.42045 182.911 -8.71217 183.621 -12.6113 184.535C-23.8777 187.187 -28.5018 191.274 -32.9691 195.231C-36.398 198.275 -39.6505 201.144 -45.7834 203.463C-45.9401 203.463 -46.136 203.463 -46.332 203.463C-53.3857 203.463 -106.876 206.072 -110.991 215.798C-112.088 218.421 -109.698 221.262 -103.839 224.262C-96.5113 228.016 -90.9663 228.451 -87.4199 228.451C-85.6956 228.451 -84.1281 228.335 -82.6194 228.233C-81.3262 228.146 -80.1114 228.059 -78.9554 228.059C-74.6448 228.059 -70.295 228.958 -64.3385 239.843C-62.869 242.524 -61.7326 244.713 -60.7921 246.539C-56.168 255.496 -56.0112 255.612 -44.2747 259.323C-41.3552 260.236 -37.7304 261.381 -33.1259 262.96C-17.9996 268.12 -14.9038 273.976 -10.985 281.397C-8.90812 285.31 -6.55687 289.76 -2.10912 294.76C2.65215 300.108 8.23632 304.413 13.6442 308.572C23.2255 315.95 32.2777 322.921 35.158 334.56C40.1544 354.721 25.3612 373.968 8.6282 391.767C0.516426 400.405 -16.1578 410.449 -33.8116 421.088C-63.7899 439.147 -97.7653 459.627 -97.8829 478.585C-97.9613 489.411 -94.1993 497.716 -86.7145 503.282C-78.5635 509.34 -66.1804 512.283 -48.84 512.283C-23.7013 512.283 7.17826 506.007 34.433 500.485C55.8881 496.137 74.4237 492.368 86.2582 492.368C88.9426 492.368 91.2154 492.571 92.9984 492.962C104.422 495.47 113.474 500.833 122.252 506.021C133.871 512.906 144.863 519.399 160.557 519.399C162.164 519.399 163.81 519.327 165.456 519.196L165.515 519.153ZM93.4491 491.948C91.4897 491.513 89.1581 491.31 86.317 491.31C74.2865 491.31 55.6725 495.093 34.1195 499.456C6.94313 504.963 -23.8581 511.225 -48.8008 511.225C-65.7493 511.225 -77.819 508.384 -85.6956 502.528C-92.9061 497.166 -96.5309 489.107 -96.4721 478.556C-96.3546 460.076 -62.6535 439.756 -32.9103 421.841C-15.1781 411.159 1.5549 401.072 9.78423 392.318C26.674 374.331 41.6239 354.866 36.5296 334.342C33.5709 322.4 24.3815 315.327 14.663 307.833C9.29439 303.703 3.74938 299.427 -0.933495 294.166C-5.30288 289.252 -7.63452 284.875 -9.67226 280.991C-13.7086 273.353 -16.9023 267.338 -32.5185 262.004C-37.1426 260.424 -40.787 259.279 -43.7064 258.351C-51.2565 255.965 -56.5207 251.892 -59.4989 246.133C-60.4394 244.307 -61.5758 242.104 -63.0454 239.423C-68.7471 229.031 -73.1949 227.001 -78.9358 227.001C-80.1506 227.001 -81.4046 227.088 -82.737 227.19C-84.2065 227.291 -85.7348 227.407 -87.4003 227.407C-91.0447 227.407 -96.0998 226.958 -103.036 223.407C-108.346 220.697 -110.56 218.233 -109.659 216.088C-106.093 207.638 -56.2268 204.464 -46.3124 204.464C-46.0773 204.464 -45.9205 204.464 -45.8225 204.464L-45.6658 204L-45.3719 204.449C-38.8668 202.014 -35.3204 198.898 -31.9111 195.869C-27.3653 191.854 -23.0743 188.057 -12.1802 185.491C-8.3007 184.578 -5.02856 183.882 -2.38342 183.317C11.8612 180.273 12.0375 180.114 18.1507 166.823L18.9149 165.142C20.0513 162.663 19.1304 160.924 18.3271 159.373C17.269 157.373 16.3677 155.648 20.0121 152.489C21.9519 150.808 28.9272 148.807 35.0796 147.054C39.2335 145.865 43.1522 144.749 45.2487 143.807C48.5013 142.343 50.7154 140.358 52.8511 138.43C55.6334 135.937 58.2589 133.574 62.981 132.328C66.1748 131.487 70.1131 131.052 74.6784 131.052C86.2974 131.052 99.9346 133.734 110.907 135.893C113.415 136.386 115.766 136.85 117.902 137.241C153.523 143.764 187.42 155.634 220.2 167.099L223.57 168.287C301.455 195.521 360.334 225.972 403.538 261.381C432.537 285.15 451.268 308.312 460.771 332.168C471.94 360.185 463.926 394.361 440.825 417.203C428.833 429.059 407.555 443.191 374.265 443.191C365.644 443.191 356.67 442.205 347.559 440.249C268.146 423.262 270.752 365.33 279.452 312.355C282.058 296.528 278.041 283.658 267.833 275.15C259.211 267.946 246.182 263.99 231.134 263.99C203.467 263.99 168.16 278.063 157.226 304.152C144.686 334.053 171.432 359.547 197.315 384.201C224.883 410.478 253.412 437.654 237.482 471.149C228.293 490.47 194.082 515.761 165.397 518.182C163.79 518.312 162.203 518.385 160.655 518.385C145.431 518.385 134.635 511.993 123.192 505.224C114.336 499.977 105.166 494.557 93.4883 491.977L93.4491 491.948Z" fill="white"/>
<path d="M199.255 44.7582C205.917 44.7582 213.284 43.5552 219.769 42.4827C223.1 41.9319 226.235 41.4246 228.743 41.1638C233.485 40.6855 238.089 40.4971 242.537 40.3086C251.805 39.9173 260.563 39.5405 267.519 36.6127C273.123 34.2502 277.198 30.3804 280 24.7423C285.036 14.6256 291.247 3.2625 300.044 -8.01367H299.359C290.62 3.21902 284.448 14.5242 279.432 24.5974C276.689 30.1195 272.692 33.9314 267.206 36.2359C260.367 39.1056 251.687 39.4825 242.498 39.8738C238.031 40.0622 233.426 40.2651 228.665 40.7289C226.137 40.9753 222.983 41.4971 219.632 42.0479C213.166 43.1059 205.858 44.3089 199.255 44.3089C192.652 44.3089 188.184 43.1494 185.226 40.7434C178.015 34.9024 181.64 21.5682 183.58 14.3937L183.893 13.2632C186.088 5.00175 189.634 -2.02774 194.631 -8.01367H193.945C189.027 -2.02774 185.52 4.97277 183.325 13.1907L183.012 14.3213C181.052 21.5682 177.408 35.0329 184.814 41.0478C187.89 43.5407 192.632 44.7582 199.274 44.7582H199.255Z" fill="white"/>
<path d="M350.93 -8H349.578C347.148 -6.08682 345.052 -4.33307 343.484 -2.73875C321.872 18.9874 312.291 39.0468 314.192 58.5845C314.936 66.1792 313.663 71.2086 310.332 73.9624C308.216 75.7161 305.179 76.5568 301.084 76.5568C295.382 76.5568 288.348 74.948 280.922 73.2522C274.162 71.7014 267.187 70.107 260.603 69.5708C255.646 69.1649 250.689 68.9765 245.418 68.9765C228.822 68.9765 213.03 70.9332 196.336 73.0058C193.534 73.3536 190.713 73.7015 187.872 74.0494L187.656 74.0783C181.797 74.7885 175.155 75.5857 168.689 75.5857C156.463 75.5857 148.645 72.5855 144.765 66.4111C136.673 53.5261 138.946 38.0033 140.925 24.3212C141.199 22.4804 141.454 20.6542 141.709 18.857C143.041 8.85628 145.373 -0.0429087 148.821 -7.98551H147.783C144.374 -0.0429087 142.062 8.82729 140.729 18.7845C140.494 20.5818 140.22 22.408 139.965 24.2487C137.966 38.0323 135.674 53.6566 143.884 66.73C147.94 73.1797 156.051 76.3249 168.689 76.3249C175.234 76.3249 181.915 75.5132 187.813 74.8175L188.028 74.7885C190.869 74.4407 193.691 74.0928 196.493 73.745C213.147 71.6869 228.881 69.7302 245.418 69.7302C250.65 69.7302 255.568 69.9186 260.486 70.3244C266.991 70.8462 273.927 72.4405 280.628 73.9769C288.132 75.7016 295.225 77.3249 301.084 77.3249C305.473 77.3249 308.745 76.3973 311.057 74.4842C314.564 71.5854 315.916 66.3821 315.152 58.57C313.29 39.2208 322.793 19.3208 344.268 -2.27495C345.953 -3.97073 348.246 -5.88391 350.93 -7.97101V-8Z" fill="white"/>
<path d="M344.562 101.864C337.92 105.328 328.828 107.024 316.758 107.024C302.592 107.024 286.721 104.676 272.751 102.603C264.502 101.386 256.723 100.226 250.355 99.7332C247.24 99.4868 238.874 98.9216 228.567 98.9216C209.483 98.9216 184.991 100.835 176.781 109.951C173.196 113.908 173.059 118.894 176.35 124.75C177.898 127.503 181.895 128.996 185.755 130.446C188.812 131.591 191.966 132.765 193.73 134.533C195.807 136.62 197.041 139.548 198.217 142.388C199.804 146.157 201.43 150.056 205.133 152.36C209.738 155.215 214.773 156.549 221.024 156.549C225.354 156.549 229.782 155.897 234.054 155.273C238.286 154.65 242.655 154.012 246.887 154.012C251.12 154.012 254.47 154.607 257.684 155.824C265.462 158.795 268.754 162.796 271.909 166.651C276.043 171.695 279.942 176.449 292.795 178.681C319.697 183.333 327.084 188.203 344.895 199.958C347.187 201.48 349.656 203.103 352.36 204.857C358.767 209.016 363.509 213.77 368.094 218.365C372.169 222.467 376.401 226.699 381.849 230.583C388.53 235.352 394.839 237.468 400.933 239.511C409.044 242.236 416.725 244.816 423.681 253.657L424.759 255.049C433.517 266.238 442.354 276.601 447.801 276.601C448.682 276.601 449.427 276.355 450.054 275.847C452.013 274.253 452.542 270.035 451.68 262.948C451.171 258.788 447.115 255.078 443.177 251.483C438.944 247.613 434.947 243.946 435.182 239.903C435.476 235.062 439.434 232.67 443.627 230.148C446.703 228.308 449.878 226.395 451.739 223.423C456.206 216.307 457.284 209.944 458.342 203.784C459.792 195.204 461.164 187.116 471.548 177.956C490.103 161.564 516.143 149.186 544.868 143.084C554.429 141.055 563.286 140.069 571.926 140.069C601.278 140.069 622.321 151.882 644.619 164.376C647.146 165.796 649.694 167.216 652.26 168.637V167.376C649.968 166.1 647.695 164.839 645.442 163.578C622.968 150.969 601.728 139.069 571.926 139.069C563.148 139.069 554.175 140.069 544.476 142.128C515.497 148.273 489.222 160.767 470.471 177.319C459.831 186.71 458.44 194.943 456.951 203.668C455.912 209.756 454.854 216.046 450.465 223.003C448.741 225.757 445.685 227.583 442.746 229.366C438.494 231.917 434.105 234.569 433.791 239.874C433.536 244.294 437.886 248.28 442.079 252.135C445.881 255.614 449.799 259.208 450.27 263.049C451.288 271.398 450.152 274.253 448.996 275.166C448.643 275.456 448.251 275.586 447.762 275.586C442.373 275.586 430.833 260.832 425.915 254.541L424.817 253.15C417.646 244.033 409.769 241.396 401.462 238.584C395.466 236.569 389.275 234.482 382.769 229.844C377.42 226.032 373.227 221.829 369.171 217.756C364.547 213.118 359.766 208.321 353.242 204.089C350.538 202.335 348.069 200.711 345.777 199.19C327.77 187.305 320.324 182.391 293.07 177.681C280.765 175.55 277.003 170.97 273.045 166.115C269.773 162.129 266.403 158.013 258.271 154.911C254.862 153.607 251.139 152.983 246.848 152.983C242.557 152.983 238.051 153.636 233.76 154.259C229.547 154.882 225.178 155.505 220.985 155.505C215.087 155.505 210.326 154.244 205.976 151.549C202.586 149.432 200.999 145.679 199.49 142.041C198.276 139.127 197.002 136.113 194.788 133.881C192.848 131.924 189.537 130.692 186.343 129.489C182.542 128.069 178.937 126.721 177.585 124.315C174.489 118.793 174.587 114.126 177.898 110.459C185.794 101.719 209.797 99.8782 228.548 99.8782C238.795 99.8782 247.083 100.443 250.179 100.69C256.469 101.183 264.228 102.342 272.438 103.545C286.486 105.632 302.416 107.98 316.719 107.98C329.083 107.98 338.429 106.226 345.306 102.632C362.451 93.6603 357.533 80.1376 352.772 67.0642C347.697 53.0922 342.446 38.6419 363.568 29.2209C366.095 28.0904 369.485 27.5107 373.619 27.5107C386.257 27.5107 404.048 32.6125 421.251 37.5549C436.24 41.8595 450.387 45.9178 459.596 46.0772C460.928 46.1062 462.241 46.1062 463.574 46.1062C483.363 46.1062 503.368 43.5843 522.727 41.1348C542.046 38.6999 562.012 36.1779 581.723 36.1779C595.517 36.1779 607.979 37.3954 619.794 39.8884C630.727 42.1929 641.504 45.2511 652.162 48.7296V47.628C641.641 44.193 630.982 41.1928 620.166 38.9173C608.214 36.3954 595.635 35.1634 581.723 35.1634C561.895 35.1634 541.85 37.6853 522.492 40.1348C503.192 42.5697 483.246 45.0916 463.574 45.0916C462.241 45.1206 460.948 45.0916 459.616 45.0626C450.642 44.9032 436.613 40.8739 421.741 36.6128C404.42 31.6414 386.512 26.4961 373.619 26.4961C369.152 26.4961 365.645 27.1048 362.843 28.3513C340.839 38.1781 346.227 52.9908 351.439 67.3251C356.279 80.6594 360.864 93.24 344.503 101.806L344.562 101.864Z" fill="white"/>
<path d="M177.918 64.8458C182.111 64.8458 186.97 64.469 194.18 63.5704C212.461 61.3093 230.605 60.2513 251.296 60.2513C256.488 60.2513 261.818 60.3092 267.617 60.4542C269.635 60.4977 271.379 60.5266 272.966 60.5266C282.548 60.5266 288.132 59.6715 292.247 57.5554C297.165 55.0335 300.104 50.6274 302.024 42.7863C306.452 24.8139 316.19 8.66786 332.668 -8H331.943C315.583 8.62438 305.864 24.756 301.456 42.7138C299.555 50.4245 296.694 54.7581 291.913 57.1931C287.897 59.2512 282.411 60.0773 272.966 60.0773C271.379 60.0773 269.635 60.0484 267.637 60.0049C261.837 59.8744 256.508 59.802 251.296 59.802C230.585 59.802 212.402 60.86 194.082 63.1355C186.911 64.0197 182.071 64.411 177.918 64.411C166.103 64.411 157.638 61.4832 154.68 47.1924C151.858 33.5392 154.366 19.0744 156.952 9.34907C158.618 3.07326 160.949 -2.69527 163.849 -8H163.242C160.342 -2.72426 158.05 3.00079 156.384 9.2766C153.778 19.0309 151.27 33.5537 154.111 47.2648C156.698 59.7585 163.595 64.8458 177.918 64.8458Z" fill="white"/>
<path d="M185.99 53.961C187.832 53.961 189.811 53.8305 191.908 53.5696C207.485 51.642 224.139 50.497 241.44 50.1926C245.477 50.1201 249.356 50.1926 253.059 50.265C255.548 50.3085 257.899 50.352 260.191 50.352C267.245 50.352 274.534 49.9462 280.157 47.0329C284.821 44.6125 288.152 40.5832 290.326 34.7422C296.224 18.8715 304.669 4.82701 316.033 -8H315.328C304.042 4.79802 295.636 18.799 289.758 34.6262C287.623 40.3658 284.37 44.3081 279.824 46.6706C274.318 49.5259 267.128 49.9172 260.191 49.9172C257.899 49.9172 255.567 49.8737 253.079 49.8302C249.376 49.7578 245.477 49.6853 241.44 49.7578C224.12 50.0766 207.406 51.2071 191.81 53.1493C182.855 54.2653 176.193 52.9319 172.04 49.1925C162.576 40.6847 167.67 21.5818 170.413 11.3202C172.334 4.1458 175.175 -2.26046 178.956 -8H178.29C174.548 -2.27495 171.726 4.10232 169.826 11.2333C167.063 21.5673 161.949 40.7861 171.569 49.4534C174.881 52.4391 179.74 53.9465 185.971 53.9465L185.99 53.961Z" fill="white"/>
</g>
<rect width="881.714" height="740.346" transform="translate(-229.493 -8)" fill="url(#paint1_radial_4557_44500)"/>
</g>
</g>
<defs>
<linearGradient id="paint0_linear_4557_44500" x1="20.0836" y1="1.74064e-06" x2="20.0836" y2="729" gradientUnits="userSpaceOnUse">
<stop offset="0.239583" stop-color="#010107"/>
<stop offset="1" stop-color="#2C325B"/>
</linearGradient>
<radialGradient id="paint1_radial_4557_44500" cx="0" cy="0" r="1" gradientUnits="userSpaceOnUse" gradientTransform="translate(798.258 96.2054) rotate(142.047) scale(815.62 793.219)">
<stop stop-color="#161D30" stop-opacity="0"/>
<stop offset="0.820421" stop-color="#161D30"/>
</radialGradient>
<clipPath id="clip0_4557_44500">
<rect width="451" height="729" fill="white"/>
</clipPath>
<clipPath id="clip1_4557_44500">
<rect width="881.714" height="652.221" fill="white" transform="translate(-229.493 -8)"/>
</clipPath>
</defs>
</svg>
