<svg width="24" height="25" viewBox="0 0 24 25" fill="none" xmlns="http://www.w3.org/2000/svg">
<g clip-path="url(#clip0_2738_28729)">
<path d="M12.1135 24.7329C6.3 24.7329 1.78378 22.0018 0.326811 17.6055L0 16.622L0.955516 16.175C1.05656 16.1268 3.56321 14.8957 3.40728 12.475C3.24263 9.91951 1.12203 8.72012 1.03159 8.67073L0.0997946 8.1561L0.502075 7.18476C2.40873 2.68476 6.75031 0 12.1141 0C16.3297 0 20.0245 1.61037 22.2486 4.41768L22.81 5.12744L18.378 10.9561L17.3888 10.0226C17.3694 10.0049 15.2626 8.06098 12.817 8.05C10.4607 8.03903 9.53202 8.90549 9.49335 8.94268L7.74761 7.3061C7.90728 7.13964 9.40353 5.6622 12.8277 5.6872C15.0094 5.69695 16.8942 6.71463 18.0062 7.48476L19.7445 5.19878C17.942 3.38781 15.2139 2.36402 12.1148 2.36402C8.11247 2.36402 4.82557 4.17439 3.14157 7.25244C4.15945 8.08598 5.65323 9.73659 5.82163 12.3262C6.00188 15.125 4.16757 16.8848 2.97443 17.725C4.38649 20.611 7.79376 22.3671 12.1154 22.3671C15.1085 22.3671 18.1721 21.2299 20.0638 19.472L18.0873 17.0543C17.0351 17.7817 15.237 18.7268 12.8857 18.8463C9.54699 19.014 7.57297 17.5146 7.49064 17.4506L8.99189 15.5982C9.03805 15.6311 10.379 16.6079 12.7597 16.4854C15.5775 16.3439 17.385 14.5774 17.4019 14.5585L18.358 13.6079L19.2131 14.6451L23.2079 19.5348L22.5954 20.2732C20.3482 22.9823 16.2356 24.7329 12.1135 24.7329Z" fill="#F8F8FA"/>
</g>
<defs>
<clipPath id="clip0_2738_28729">
<rect width="23.0769" height="25" fill="white"/>
</clipPath>
</defs>
</svg>
