<svg width="24" height="24" viewBox="0 0 24 24" fill="none" xmlns="http://www.w3.org/2000/svg">
<g filter="url(#filter0_b_3125:18166)">
<circle cx="12" cy="12" r="12" fill="#F8F8FA"/>
</g>
<g clip-path="url(#clip0_3125:18166)">
<path d="M11.9934 19.1344C8.70463 19.1344 6.14973 17.5894 5.32551 15.1023L5.14062 14.5459L5.68117 14.2931C5.73833 14.2658 7.15638 13.5694 7.06817 12.1999C6.97502 10.7543 5.77537 10.0758 5.72421 10.0478L5.19708 9.75668L5.42466 9.20717C6.50328 6.66146 8.95937 5.14265 11.9938 5.14265C14.3786 5.14265 16.4688 6.05366 17.727 7.6418L18.0446 8.04332L15.5373 11.3407L14.9777 10.8126C14.9668 10.8026 13.7749 9.70286 12.3914 9.69665C11.0584 9.69045 10.533 10.1806 10.5111 10.2017L9.52356 9.27582C9.61388 9.18165 10.4603 8.34584 12.3974 8.35998C13.6316 8.3655 14.6979 8.94122 15.327 9.37689L16.3104 8.08368C15.2907 7.05918 13.7474 6.48002 11.9941 6.48002C9.72997 6.48002 7.87052 7.50417 6.91786 9.24546C7.49369 9.71701 8.33874 10.6508 8.434 12.1158C8.53597 13.6991 7.49828 14.6946 6.82331 15.1699C7.62213 16.8026 9.54967 17.796 11.9945 17.796C13.6877 17.796 15.4209 17.1527 16.491 16.1582L15.3729 14.7905C14.7776 15.202 13.7604 15.7367 12.4302 15.8043C10.5415 15.8992 9.42476 15.0509 9.37819 15.0147L10.2275 13.9668C10.2536 13.9854 11.0122 14.538 12.359 14.4687C13.9531 14.3886 14.9756 13.3893 14.9851 13.3786L15.526 12.8409L16.0097 13.4276L18.2697 16.1937L17.9232 16.6115C16.6519 18.1441 14.3253 19.1344 11.9934 19.1344Z" fill="url(#paint0_linear_3125:18166)"/>
</g>
<defs>
<filter id="filter0_b_3125:18166" x="-22" y="-22" width="68" height="68" color-interpolation-filters="sRGB">
<feFlood flood-opacity="0" result="BackgroundImageFix"/>
<feGaussianBlur in="BackgroundImage" stdDeviation="11"/>
<feComposite in2="SourceAlpha" operator="in" result="effect1_backgroundBlur_3125:18166"/>
<feBlend in="SourceGraphic" in2="effect1_backgroundBlur_3125:18166" result="shape"/>
</filter>
<linearGradient id="paint0_linear_3125:18166" x1="17.7005" y1="7.35067" x2="6.82163" y2="17.0925" gradientUnits="userSpaceOnUse">
<stop offset="0.0733" stop-color="#F46881"/>
<stop offset="0.083" stop-color="#F36682"/>
<stop offset="0.2596" stop-color="#E74596"/>
<stop offset="0.407" stop-color="#E031A2"/>
<stop offset="0.5065" stop-color="#DD2AA6"/>
<stop offset="0.8882" stop-color="#5210E2"/>
</linearGradient>
<clipPath id="clip0_3125:18166">
<rect width="13.0549" height="14.1429" fill="white" transform="translate(5.14062 5.14265)"/>
</clipPath>
</defs>
</svg>
